<svg xmlns="http://www.w3.org/2000/svg" width="49" height="48" viewBox="0 0 49 48">
    <g fill="none" fill-rule="evenodd" transform="translate(.158)">
        <circle cx="24" cy="24" r="21.474" stroke="#FF8D00" stroke-width="2" opacity=".9"/>
        <path fill="#FF8D00" fill-rule="nonzero" d="M20.14 24.809a1.661 1.661 0 0 0-2.236.555 1.544 1.544 0 0 0 .581 2.148 15.032 15.032 0 0 0 3.89 1.604l-3.675 3.55a1.541 1.541 0 0 0 0 2.223 1.671 1.671 0 0 0 2.312 0l3.688-3.55 3.676 3.55a1.671 1.671 0 0 0 2.311 0 1.541 1.541 0 0 0 0-2.224l-3.6-3.473a10.69 10.69 0 0 0 3.828-1.769 1.542 1.542 0 0 0 .34-2.198 1.681 1.681 0 0 0-2.286-.328 6.821 6.821 0 0 1-3.966 1.39h-.126v.631h-.013l.013-.632a9.776 9.776 0 0 1-4.737-1.477zm4.37-12.177a5.843 5.843 0 0 1 4.155 1.72 5.835 5.835 0 0 1 1.72 4.153c0 1.57-.622 3.072-1.72 4.155a5.878 5.878 0 0 1-8.308 0 5.835 5.835 0 0 1-1.72-4.155c0-1.57.622-3.072 1.72-4.154a5.843 5.843 0 0 1 4.154-1.72zm0 3.158a2.702 2.702 0 0 0-1.92.795 2.698 2.698 0 0 0-.795 1.92 2.718 2.718 0 0 0 5.432 0c0-.726-.288-1.42-.796-1.92a2.702 2.702 0 0 0-1.92-.795z"/>
    </g>
</svg>
