<svg xmlns="http://www.w3.org/2000/svg" width="49" height="48" viewBox="0 0 49 48">
    <g fill="none" fill-rule="evenodd" transform="translate(.737)">
        <path fill="#78BEFF" fill-rule="nonzero" d="M35.368 16.699a8.408 8.408 0 0 1-2.677.783 4.91 4.91 0 0 0 2.058-2.754 9.141 9.141 0 0 1-2.968 1.213 4.11 4.11 0 0 0-3.398-2.046c-2.577 0-4.674 2.703-4.674 5.457-.003.382.04.764.127 1.136a13.042 13.042 0 0 1-9.625-5.216 5.411 5.411 0 0 0-.632 2.513 5.064 5.064 0 0 0 2.084 4.143 4.374 4.374 0 0 1-2.122-.619v.064a4.926 4.926 0 0 0 3.752 4.888 4.443 4.443 0 0 1-1.238.177 4.973 4.973 0 0 1-.872-.089 4.71 4.71 0 0 0 4.358 3.462 8.979 8.979 0 0 1-5.798 2.134c-.372 0-.743-.025-1.111-.076a12.632 12.632 0 0 0 7.15 2.249c8.589 0 13.275-7.604 13.275-14.185 0-.215 0-.43-.013-.645a9.913 9.913 0 0 0 2.324-2.59z"/>
        <circle cx="24" cy="24" r="21.474" stroke="#78BEFF" stroke-width="2" opacity=".9"/>
    </g>
</svg>
