<svg xmlns="http://www.w3.org/2000/svg" width="352" height="87" viewBox="0 0 352 87">
    <path fill="#FFF" fill-rule="evenodd" d="M.115 3.901c.153-.766.488-1.34 1.005-1.724a2.787 2.787 0 0 1 1.695-.574c.575 0 1.14.182 1.695.546.556.363.949.89 1.178 1.58 0 .306-.01.632-.028.976-.02.345-.03.67-.03.977a154.16 154.16 0 0 0-.114 6.148c0 3.18.23 6.369.69 9.567.46 3.199 1.379 6.139 2.758 8.82.153.153.335.345.545.575.211.23.393.402.546.517l.92.287.632-.23 1.149-1.034a25.141 25.141 0 0 0 2.154-5.315 46.56 46.56 0 0 0 1.207-5.717 60.68 60.68 0 0 0 .575-5.918c.095-1.992.182-3.965.258-5.919a25.978 25.978 0 0 1 .115-2.47c.153-.728.489-1.283 1.006-1.667a2.787 2.787 0 0 1 1.695-.574c.574 0 1.14.182 1.695.546.555.364.948.89 1.178 1.58a205.413 205.413 0 0 0-.115 7.01c0 3.14.22 6.282.66 9.423a26.776 26.776 0 0 0 2.845 8.849l1.149 1.034c.498.153.814.22.948.201.134-.02.316-.067.546-.144 1.11-1.149 1.925-2.557 2.442-4.223A42.752 42.752 0 0 0 32.349 22c.498-2.987.824-5.994.977-9.02.153-3.027.268-6.072.345-9.136.153-.767.488-1.341 1.005-1.724a2.87 2.87 0 0 1 1.753-.575c.536 0 1.082.182 1.637.546.556.364.948.89 1.178 1.58a475.934 475.934 0 0 1-.287 7.527c-.115 2.49-.326 5-.632 7.527a75.927 75.927 0 0 1-1.264 7.326c-.537 2.394-1.456 4.721-2.758 6.982a6.742 6.742 0 0 1-2.758 2.528 8.112 8.112 0 0 1-3.678.862c-1.225 0-2.422-.288-3.59-.862a7.416 7.416 0 0 1-2.845-2.414 18.543 18.543 0 0 1-1.178-2.154 18.504 18.504 0 0 1-.833-2.155c-.268.69-.594 1.417-.977 2.183a41.621 41.621 0 0 1-1.206 2.241c-.69 1.111-1.6 1.935-2.73 2.471a8.401 8.401 0 0 1-3.648.804 8.112 8.112 0 0 1-3.678-.861c-1.149-.575-2.087-1.418-2.815-2.529a24.073 24.073 0 0 1-2.241-4.941 39.467 39.467 0 0 1-1.35-5.43 46.086 46.086 0 0 1-.632-5.66A113.902 113.902 0 0 1 0 11.428c0-1.302.01-2.576.029-3.82.019-1.246.048-2.462.086-3.65v-.057zm42.568.977c.153-.766.488-1.34 1.006-1.724a2.787 2.787 0 0 1 1.695-.575c.574 0 1.14.182 1.695.546.555.364.948.89 1.178 1.58.038 2.414.067 4.712.086 6.895.019 2.184.028 4.386.028 6.608v1.35c0 .364.01.71.03 1.035.018.325.028.67.028 1.034v1.35c1.724-2.95 3.438-5.89 5.142-8.82 1.705-2.93 3.42-5.89 5.143-8.877.613-.996 1.475-1.494 2.586-1.494.613 0 1.168.182 1.666.546.498.364.862.89 1.092 1.58l.172 8.561c.077 3.141.144 6.244.201 9.309.058 3.064.086 6.244.086 9.538-.076.92-.392 1.609-.948 2.068-.555.46-1.178.69-1.867.69-.613 0-1.207-.21-1.781-.632-.575-.422-.9-1.073-.977-1.954 0-1.915-.02-3.744-.058-5.487l-.115-5.2c0-.69-.01-1.274-.028-1.753l-.058-1.436c-.019-.479-.028-.977-.028-1.494v-1.867l-3.103 5.228a544.768 544.768 0 0 1-3.735 6.32 1334.565 1334.565 0 0 0-3.735 6.264c-.69.804-1.513 1.206-2.47 1.206-.652 0-1.245-.22-1.782-.66-.536-.44-.842-1.063-.92-1.868 0-4.826-.018-9.461-.057-13.905a1920.21 1920.21 0 0 0-.172-13.905v-.057zm53.14 12.181c1.188.077 1.926.393 2.213.948.287.556.43 1.178.43 1.868a3.85 3.85 0 0 1-.459 1.838c-.306.575-1.034.9-2.183.977v10.802c0 1.226-.345 2.069-1.035 2.528-.69.46-1.436.69-2.24.69-.728 0-1.37-.259-1.925-.776-.556-.517-.834-1.33-.834-2.442V22.69H75.31v10.745c0 1.226-.344 2.068-1.033 2.528-.69.46-1.418.69-2.184.69-.728 0-1.37-.26-1.925-.776-.555-.517-.833-1.331-.833-2.442V4.073c0-.69.115-1.254.345-1.695.23-.44.527-.775.89-1.005a3.72 3.72 0 0 1 1.207-.489c.44-.095.872-.143 1.293-.143.613 0 1.14.22 1.58.66.44.441.66 1.16.66 2.155V17.06h14.48V4.073c0-.69.115-1.254.345-1.695.23-.44.527-.775.89-1.005a3.72 3.72 0 0 1 1.207-.489c.441-.095.872-.143 1.293-.143.69 0 1.245.22 1.667.66.421.441.632 1.16.632 2.155V17.06zm36.478 4.022a29.283 29.283 0 0 1-1.465 4.223 28.335 28.335 0 0 1-2.27 4.252 21.067 21.067 0 0 1-3.045 3.706c-1.15 1.111-2.413 1.954-3.792 2.529-1.188.46-2.346.842-3.476 1.149-1.13.306-2.29.46-3.477.46-.996 0-2.001-.154-3.016-.46-1.015-.307-2.04-.632-3.074-.977-1.61-.575-2.96-1.408-4.051-2.5a13.803 13.803 0 0 1-2.643-3.677 17.549 17.549 0 0 1-1.465-4.338 23.386 23.386 0 0 1-.403-6.263c.039-.575.096-1.13.173-1.666.191-1.188.546-2.48 1.063-3.879a29.362 29.362 0 0 1 1.896-4.108 25.54 25.54 0 0 1 2.528-3.735c.939-1.149 1.925-2.087 2.96-2.815A16.273 16.273 0 0 1 113.08.97a16.8 16.8 0 0 1 4.798-.69c2.643 0 5.133.651 7.47 1.954 2.336 1.302 4.194 3.16 5.573 5.573a14.655 14.655 0 0 1 1.408 3.907c.287 1.38.43 2.74.43 4.08a30.496 30.496 0 0 1-.459 5.286zM119.258 31.31a11.782 11.782 0 0 0 3.563-2.873 17.525 17.525 0 0 0 2.47-3.879 19.453 19.453 0 0 0 1.437-4.366c.306-1.514.46-2.96.46-4.339 0-.996-.096-1.982-.288-2.959a11.608 11.608 0 0 0-.92-2.786c-.88-1.61-2.096-2.835-3.648-3.678a10.145 10.145 0 0 0-4.913-1.264c-.996 0-1.953.163-2.872.489-.92.325-1.8.775-2.644 1.35-.996.766-1.886 1.714-2.671 2.844a19.887 19.887 0 0 0-1.983 3.591 21.733 21.733 0 0 0-1.235 3.879c-.287 1.321-.431 2.576-.431 3.763 0 1.494.192 2.92.575 4.28.383 1.36.976 2.558 1.78 3.592a8.834 8.834 0 0 0 3.017 2.47c1.207.614 2.653.92 4.338.92.652 0 1.332-.096 2.04-.287a9.151 9.151 0 0 0 1.925-.747zm56.646 2.7c-.039.996-.355 1.724-.948 2.184-.594.46-1.236.69-1.925.69-.651 0-1.264-.221-1.839-.662-.575-.44-.9-1.12-.977-2.04-.191-1.646-.412-3.409-.66-5.285a229.064 229.064 0 0 0-.834-5.718c-.306-1.934-.66-3.85-1.063-5.745a96.743 96.743 0 0 0-1.292-5.373 102.464 102.464 0 0 0-1.753 4.453 411.46 411.46 0 0 1-1.752 4.683l-2.299 6.206a127.06 127.06 0 0 1-2.356 5.918c-.69.766-1.513 1.149-2.47 1.149-.728 0-1.513-.364-2.356-1.092l-10.4-20.398a1623.892 1623.892 0 0 0-.92 10.228l-1.091 11.664c-.307.766-.718 1.331-1.236 1.695-.517.364-1.043.546-1.58.546-.69 0-1.312-.23-1.867-.69-.555-.46-.871-1.13-.948-2.01l2.93-30.798c.115-.728.44-1.293.977-1.695a2.984 2.984 0 0 1 1.839-.604c.996 0 1.82.46 2.47 1.38a129.191 129.191 0 0 1 3.16 5.889 1989.02 1989.02 0 0 0 3.16 6.234c.997 1.992 1.926 3.84 2.788 5.545.862 1.705 1.79 3.457 2.786 5.257.575-1.455 1.15-2.95 1.724-4.481a967.578 967.578 0 0 1 1.781-4.712c.881-2.375 1.772-4.73 2.672-7.067.9-2.337 1.81-4.578 2.73-6.723.612-1.034 1.493-1.551 2.643-1.551.574 0 1.12.182 1.637.545.517.364.89.91 1.12 1.638.69 2.337 1.35 4.788 1.983 7.355a233.458 233.458 0 0 1 1.781 7.814 143.595 143.595 0 0 1 1.437 7.93c.402 2.642.718 5.19.948 7.641zm34.064-12.928a29.283 29.283 0 0 1-1.465 4.223 28.335 28.335 0 0 1-2.27 4.252 21.067 21.067 0 0 1-3.045 3.706c-1.15 1.111-2.413 1.954-3.792 2.529-1.188.46-2.347.842-3.477 1.149-1.13.306-2.288.46-3.476.46-.996 0-2.001-.154-3.016-.46-1.016-.307-2.04-.632-3.075-.977-1.608-.575-2.959-1.408-4.05-2.5a13.803 13.803 0 0 1-2.643-3.677 17.549 17.549 0 0 1-1.466-4.338 23.386 23.386 0 0 1-.402-6.263c.038-.575.096-1.13.173-1.666.191-1.188.545-2.48 1.063-3.879a29.362 29.362 0 0 1 1.896-4.108 25.54 25.54 0 0 1 2.528-3.735c.938-1.149 1.925-2.087 2.959-2.815A16.273 16.273 0 0 1 190.748.97a16.8 16.8 0 0 1 4.798-.69c2.643 0 5.133.651 7.47 1.954 2.336 1.302 4.194 3.16 5.573 5.573a14.655 14.655 0 0 1 1.408 3.907c.287 1.38.43 2.74.43 4.08a30.496 30.496 0 0 1-.459 5.286zM196.925 31.31a11.782 11.782 0 0 0 3.562-2.873 17.525 17.525 0 0 0 2.471-3.879 19.453 19.453 0 0 0 1.436-4.366c.307-1.514.46-2.96.46-4.339 0-.996-.096-1.982-.287-2.959a11.608 11.608 0 0 0-.92-2.786c-.88-1.61-2.097-2.835-3.648-3.678a10.145 10.145 0 0 0-4.913-1.264c-.996 0-1.953.163-2.873.489-.92.325-1.8.775-2.643 1.35-.996.766-1.886 1.714-2.672 2.844a19.887 19.887 0 0 0-1.982 3.591 21.733 21.733 0 0 0-1.235 3.879c-.288 1.321-.431 2.576-.431 3.763 0 1.494.191 2.92.574 4.28.383 1.36.977 2.558 1.782 3.592a8.834 8.834 0 0 0 3.016 2.47c1.207.614 2.653.92 4.338.92.651 0 1.331-.096 2.04-.287a9.151 9.151 0 0 0 1.925-.747zm43.545-14.25c1.187.077 1.925.393 2.212.948.287.556.43 1.178.43 1.868a3.85 3.85 0 0 1-.459 1.838c-.306.575-1.034.9-2.183.977v10.802c0 1.226-.345 2.069-1.034 2.528-.69.46-1.437.69-2.241.69-.728 0-1.37-.259-1.925-.776-.556-.517-.833-1.33-.833-2.442V22.69h-14.48v10.745c0 1.226-.345 2.068-1.034 2.528-.69.46-1.417.69-2.184.69-.727 0-1.369-.26-1.924-.776-.556-.517-.834-1.331-.834-2.442V4.073c0-.69.115-1.254.345-1.695.23-.44.527-.775.89-1.005a3.72 3.72 0 0 1 1.207-.489c.44-.095.872-.143 1.293-.143.613 0 1.14.22 1.58.66.44.441.661 1.16.661 2.155V17.06h14.48V4.073c0-.69.115-1.254.344-1.695.23-.44.527-.775.891-1.005a3.72 3.72 0 0 1 1.207-.489c.44-.095.871-.143 1.292-.143.69 0 1.245.22 1.667.66.421.441.632 1.16.632 2.155V17.06zM268.96 1.66c.767.268 1.35.651 1.753 1.15.402.497.584.995.546 1.493-.038.575-.278 1.082-.718 1.523-.44.44-1.102.756-1.983.948l-8.446.057c0 4.559.01 9.127.029 13.704.019 4.578.029 9.146.029 13.704-.039.996-.355 1.724-.949 2.184-.593.46-1.235.69-1.924.69-.652 0-1.255-.221-1.81-.662-.556-.44-.891-1.101-1.006-1.982l-.057-27.638h-8.562c-.957-.191-1.656-.536-2.097-1.034-.44-.498-.642-1.053-.603-1.666.038-.613.306-1.168.804-1.666.498-.498 1.283-.747 2.356-.747h10.113c2.72 0 4.941-.01 6.665-.03 1.724-.018 3.036-.028 3.936-.028h1.925zm33.26 32.177c-.076.958-.373 1.676-.89 2.155-.517.478-1.14.718-1.867.718-.537 0-1.063-.153-1.58-.46-.518-.306-.93-.785-1.236-1.436a39.838 39.838 0 0 0-.89-5.057 51.757 51.757 0 0 0-1.523-5.056c-2.413 0-4.827.02-7.24.057-2.413.039-4.846.058-7.297.058h-.115c-.46 1.609-.89 3.15-1.293 4.625a75.722 75.722 0 0 0-1.12 4.74c-.307.843-.709 1.456-1.207 1.84-.498.382-1.034.574-1.609.574-.804 0-1.503-.316-2.097-.948-.594-.632-.776-1.465-.546-2.5a157 157 0 0 1 4.482-16.03c1.762-5.21 3.984-10.362 6.665-15.457l-.057.058c.306-.805.976-1.322 2.01-1.552h-.057c1.034-.345 1.954-.153 2.758.575.958.92 1.848 1.944 2.672 3.074a42.425 42.425 0 0 1 2.298 3.505 61.622 61.622 0 0 1 1.983 3.648 281.838 281.838 0 0 1 1.723 3.505c.345.728.71 1.542 1.092 2.442.383.9.747 1.791 1.092 2.672.421 0 .88-.01 1.379-.029.498-.019.957-.028 1.379-.028.804.268 1.398.632 1.781 1.091.383.46.575.958.575 1.494 0 .537-.211 1.044-.632 1.523-.422.479-1.073.814-1.954 1.006h-.69a49.804 49.804 0 0 1 2.012 9.193zm-13.272-21.604c-.46-.843-.93-1.686-1.408-2.529a27.202 27.202 0 0 0-1.408-2.24 95.788 95.788 0 0 0-2.557 5.946 192.86 192.86 0 0 0-2.327 6.292c1.954 0 3.821-.019 5.602-.057 1.782-.039 3.649-.058 5.603-.058a48.73 48.73 0 0 0-1.437-3.16 82.897 82.897 0 0 1-1.494-3.16l-.574-1.034zm56.243-8.677c.306-.536.69-.929 1.15-1.178.459-.249.957-.373 1.493-.373.804 0 1.494.364 2.069 1.092.574.727.632 1.666.172 2.815a68.716 68.716 0 0 1-1.724 2.7 78.982 78.982 0 0 1-2.27 3.218 52.044 52.044 0 0 1-2.643 3.275 46.138 46.138 0 0 1-2.786 2.93c1.302.882 2.5 1.907 3.59 3.075a29.977 29.977 0 0 1 2.989 3.763c.9 1.341 1.723 2.72 2.47 4.137a65.385 65.385 0 0 1 1.983 4.08c.268.996.105 1.79-.489 2.385-.593.593-1.292.89-2.097.89a2.914 2.914 0 0 1-1.494-.402c-.46-.268-.843-.709-1.149-1.322a54.062 54.062 0 0 0-1.982-3.907 37.82 37.82 0 0 0-2.615-4.08 25.315 25.315 0 0 0-3.131-3.533c-1.13-1.053-2.327-1.79-3.591-2.212h-4.08v12.985c-.076.958-.383 1.667-.92 2.126-.535.46-1.148.69-1.838.69-.651 0-1.254-.22-1.81-.66-.555-.441-.871-1.102-.948-1.983V20.85h-3.907a12.832 12.832 0 0 0-3.879 2.471 22.695 22.695 0 0 0-3.16 3.591 36.732 36.732 0 0 0-2.557 4.166 58.598 58.598 0 0 0-2.01 4.194c-.69.805-1.514 1.207-2.471 1.207-.805 0-1.485-.297-2.04-.89-.556-.594-.738-1.37-.546-2.328a72.16 72.16 0 0 1 1.925-3.907 50.8 50.8 0 0 1 2.5-4.223 36.033 36.033 0 0 1 3.045-3.993c1.11-1.264 2.298-2.337 3.562-3.218a35.283 35.283 0 0 1-5.286-5.688 76.859 76.859 0 0 1-4.252-6.378c-.268-.537-.383-1.044-.345-1.523.038-.479.172-.89.402-1.235.23-.345.537-.623.92-.834a2.58 2.58 0 0 1 1.264-.316c.957 0 1.896.575 2.815 1.724a71.863 71.863 0 0 0 4.396 6.608c1.628 2.183 3.514 4.022 5.66 5.516a9.634 9.634 0 0 1 1.838-.058c.651.039 1.322.096 2.011.173h.115V3.44c.153-.766.479-1.35.977-1.752a2.665 2.665 0 0 1 1.724-.603c.574 0 1.14.182 1.695.545.555.364.929.91 1.12 1.638v12.756h1.839c.574 0 1.187-.02 1.838-.058 2.184-1.494 4.137-3.351 5.861-5.573a59.296 59.296 0 0 0 4.597-6.838zM6.493 82.32c-.038.92-.335 1.609-.89 2.068-.556.46-1.179.69-1.868.69-.651 0-1.255-.21-1.81-.632-.556-.422-.872-1.073-.948-1.954.038-4.788.057-9.758.057-14.91V52.614c.307-1.494 1.322-2.26 3.046-2.299a601.024 601.024 0 0 1 11.664-.115c.766.23 1.35.585 1.752 1.063.402.48.603.968.603 1.466 0 .536-.21 1.034-.632 1.494-.421.46-1.072.785-1.953.976-.766 0-1.561.01-2.385.03-.823.018-1.618.028-2.384.028H6.55v7.527c1.188-.881 2.605-1.38 4.252-1.494 1.686-.115 3.16.172 4.425.862 1.264.69 2.327 1.59 3.188 2.7a11.535 11.535 0 0 1 1.925 3.735c.422 1.38.632 2.662.632 3.85 0 1.609-.277 3.265-.833 4.97-.555 1.705-1.503 3.189-2.844 4.453-.881.766-1.8 1.322-2.758 1.666a8.591 8.591 0 0 1-2.93.518c-1.916 0-3.62-.575-5.114-1.724zm.632-9.94c.038.574.124 1.235.258 1.982.134.747.364 1.455.69 2.126.326.67.737 1.245 1.235 1.724.498.478 1.13.718 1.896.718.728 0 1.35-.22 1.868-.661a5.63 5.63 0 0 0 1.293-1.609 7.395 7.395 0 0 0 .747-2.068c.153-.747.23-1.427.23-2.04 0-.575-.077-1.216-.23-1.925a7.478 7.478 0 0 0-.747-2.011 5.41 5.41 0 0 0-1.322-1.609c-.536-.44-1.168-.66-1.896-.66-.69 0-1.283.21-1.781.631-.498.422-.91.939-1.236 1.552a7.647 7.647 0 0 0-.718 1.982 13.56 13.56 0 0 0-.287 1.867zm35.73 6.205c1.073-.077 1.906.134 2.5.632.594.498.89 1.092.89 1.781 0 .422-.153.853-.46 1.293-.306.44-.784.833-1.436 1.178-1.608.46-3.332.814-5.17 1.063a41.486 41.486 0 0 1-5.574.373c-2.835 0-5.478-.306-7.93-.919-1.264-.69-1.857-1.551-1.78-2.586V56.636c-.537-.192-.93-.489-1.179-.89a2.413 2.413 0 0 1-.373-1.294c0-.498.182-.967.546-1.407.364-.44.929-.814 1.695-1.12a28.532 28.532 0 0 1 6.636-1.179c2.28-.134 4.587-.2 6.924-.2a107.512 107.512 0 0 0 4.941-.116c.958.039 1.762.307 2.414.805.65.498.976 1.034.976 1.609 0 .574-.22 1.11-.66 1.608-.44.498-1.12.843-2.04 1.035a88.31 88.31 0 0 1-2.442.086c-.862.019-1.734.029-2.615.029-1.57 0-3.112.019-4.625.057a37.099 37.099 0 0 0-4.568.402v9.596a7.05 7.05 0 0 0 1.092.029c.345-.02.728-.03 1.149-.03 1.494 0 2.997-.037 4.51-.114a99.424 99.424 0 0 0 4.626-.345c1.072-.076 1.906.144 2.5.66.593.518.89 1.102.89 1.753 0 .575-.21 1.102-.632 1.58-.421.48-1.073.815-1.954 1.006a89.98 89.98 0 0 1-10.17.575c-.421 0-.756.01-1.005.028-.25.02-.585.01-1.006-.028v8.733c.728.077 1.427.144 2.097.201.67.058 1.37.087 2.098.087 1.57 0 3.121-.106 4.654-.316a35.452 35.452 0 0 0 4.424-.891h.057zM70.83 75.31a3.425 3.425 0 0 1 2.241-.805c.728 0 1.35.23 1.867.69.518.46.776 1.053.776 1.781 0 .268-.096.69-.287 1.264a30.564 30.564 0 0 1-2.184 2.93c-.804.958-1.695 1.801-2.671 2.529a12.921 12.921 0 0 1-3.247 1.752c-1.187.44-2.49.661-3.907.661-2.107 0-4.041-.421-5.803-1.264a13.694 13.694 0 0 1-4.54-3.476c-1.264-1.475-2.24-3.199-2.93-5.172-.69-1.972-1.034-4.089-1.034-6.349 0-1.57.21-3.045.632-4.424.574-1.839 1.245-3.448 2.01-4.827a15.9 15.9 0 0 1 2.759-3.648 19.452 19.452 0 0 1 3.677-2.816c1.38-.823 2.969-1.599 4.77-2.327H62.9a24.235 24.235 0 0 1 3.189-1.149 11.13 11.13 0 0 1 2.959-.402c1.456 0 2.758.402 3.907 1.207 1.15.804 2.222 2.183 3.218 4.137.076.306.115.612.115.919 0 .728-.259 1.321-.776 1.781-.517.46-1.14.69-1.867.69-.92 0-1.762-.383-2.529-1.15-.536-.919-.957-1.57-1.264-1.953-.306-.383-.65-.575-1.034-.575-.23 0-.574.077-1.034.23-.46.153-.958.326-1.494.517l-.92.345a21.917 21.917 0 0 0-4.021 2.011 15.219 15.219 0 0 0-3.362 2.902 13.302 13.302 0 0 0-2.327 3.907c-.574 1.475-.862 3.17-.862 5.085 0 1.34.192 2.653.575 3.936a11.139 11.139 0 0 0 1.695 3.447 8.747 8.747 0 0 0 2.73 2.442c1.072.613 2.297.92 3.676.92a5.12 5.12 0 0 0 2.27-.517 8.356 8.356 0 0 0 1.954-1.322c.593-.536 1.149-1.14 1.666-1.81.517-.67.967-1.35 1.35-2.04l.115-.057zm13.494 7.01c-.076.92-.392 1.609-.948 2.068-.555.46-1.178.69-1.867.69-.613 0-1.207-.21-1.781-.632-.575-.422-.9-1.073-.977-1.954V68.645c0-2.299.01-4.616.029-6.953.019-2.336.028-4.673.028-7.01.115-.613.326-1.091.632-1.436.307-.345.786-.613 1.437-.805a31.779 31.779 0 0 1 4.05-.316c1.36-.019 2.75-.028 4.166-.028 1.303 0 2.605-.02 3.908-.058a35.377 35.377 0 0 0 3.964-.345c.881-.038 1.58.106 2.097.431.518.326.91.872 1.178 1.638v7.326c0 2.356.02 4.702.058 7.039a851.993 851.993 0 0 1 .115 14.307c-.077.92-.393 1.609-.948 2.068-.556.46-1.16.69-1.81.69-.651 0-1.264-.21-1.839-.632-.575-.422-.9-1.073-.977-1.954v-6.55c0-2.107-.019-4.214-.057-6.32a571.962 571.962 0 0 1-.086-6.264c-.02-2.221-.03-4.386-.03-6.492-.344.038-.66.057-.947.057H91.16c-.498 0-1.015-.02-1.551-.057-.345 0-.814-.01-1.408-.03a47.111 47.111 0 0 0-1.465-.028H85.53c-.307 0-.69.038-1.15.115 0 2.107-.009 4.204-.028 6.292-.02 2.087-.029 4.185-.029 6.291V82.32zM105.287 76c-.536-1.073-.527-1.993.029-2.759.555-.766 1.273-1.149 2.154-1.149.46 0 .958.115 1.494.345.537.23.958.651 1.265 1.264.191.421.469.986.833 1.695a27.96 27.96 0 0 0 1.235 2.155c.46.728.939 1.388 1.436 1.982.498.594.958.967 1.38 1.12a15.391 15.391 0 0 0 1.321-3.792c.268-1.302.44-2.633.517-3.993.077-1.36.106-2.739.086-4.137-.019-1.398-.028-2.825-.028-4.28a319.584 319.584 0 0 0-.115-8.677v-1.15c.115-.612.325-1.09.632-1.436.306-.344.785-.613 1.436-.804a38.864 38.864 0 0 1 4.08-.374c1.417-.057 2.854-.124 4.31-.2 1.263-.077 2.518-.144 3.763-.202 1.245-.057 2.5-.163 3.763-.316.881-.038 1.58.106 2.097.431.518.326.91.872 1.178 1.638v14.652c0 2.451.01 4.893.03 7.326.018 2.432.028 4.855.028 7.268-.077.92-.393 1.609-.948 2.069-.556.46-1.159.69-1.81.69s-1.264-.212-1.839-.633c-.574-.421-.9-1.072-.977-1.954 0-2.221-.01-4.433-.028-6.636-.02-2.203-.03-4.415-.03-6.636V56.406c-1.723.115-3.399.24-5.027.373-1.628.135-3.323.24-5.085.317 0 1.225.02 2.422.058 3.59.038 1.169.057 2.366.057 3.592v4.826c0 2.184-.134 4.405-.402 6.666a22.83 22.83 0 0 1-1.724 6.435c-.613 1.226-1.35 2.135-2.212 2.73-.862.593-1.772.89-2.73.89-1.302 0-2.575-.431-3.82-1.293a13.035 13.035 0 0 1-3.19-3.132c-.65-.919-1.225-1.8-1.723-2.643A44.905 44.905 0 0 1 105.287 76zm66.241 6.837c-.076.958-.373 1.676-.89 2.155-.518.478-1.14.718-1.868.718-.536 0-1.063-.153-1.58-.46-.517-.306-.929-.785-1.235-1.436a39.839 39.839 0 0 0-.89-5.057 51.757 51.757 0 0 0-1.524-5.056c-2.413 0-4.826.02-7.24.057-2.413.039-4.845.058-7.297.058h-.114c-.46 1.609-.891 3.15-1.293 4.625a75.722 75.722 0 0 0-1.12 4.74c-.307.843-.71 1.456-1.207 1.84-.498.382-1.035.574-1.61.574-.804 0-1.503-.316-2.096-.948-.594-.632-.776-1.465-.546-2.5a157 157 0 0 1 4.481-16.03c1.763-5.21 3.984-10.362 6.666-15.457l-.058.058c.307-.805.977-1.322 2.011-1.552h-.057c1.034-.345 1.953-.153 2.758.575.957.92 1.848 1.944 2.672 3.074a42.425 42.425 0 0 1 2.298 3.505 61.622 61.622 0 0 1 1.982 3.648 281.838 281.838 0 0 1 1.724 3.505c.345.728.709 1.542 1.092 2.442.383.9.747 1.791 1.091 2.672.422 0 .881-.01 1.38-.029.497-.019.957-.028 1.378-.028.805.268 1.399.632 1.782 1.091.383.46.574.958.574 1.494 0 .537-.21 1.044-.632 1.523-.421.479-1.072.814-1.953 1.006h-.69a49.804 49.804 0 0 1 2.011 9.193zm-13.273-21.604c-.46-.843-.929-1.686-1.407-2.529a27.202 27.202 0 0 0-1.408-2.24 95.788 95.788 0 0 0-2.557 5.946 192.86 192.86 0 0 0-2.327 6.292c1.953 0 3.82-.019 5.602-.057 1.781-.039 3.649-.058 5.602-.058a48.73 48.73 0 0 0-1.436-3.16 82.897 82.897 0 0 1-1.494-3.16l-.575-1.034zm40.04-10.573c.766.268 1.35.651 1.753 1.15.402.497.584.995.546 1.493-.039.575-.278 1.082-.719 1.523-.44.44-1.1.756-1.982.948l-8.446.057c0 4.559.01 9.127.028 13.704.02 4.578.03 9.146.03 13.704-.04.996-.355 1.724-.949 2.184-.594.46-1.235.69-1.925.69-.651 0-1.254-.221-1.81-.662-.555-.44-.89-1.101-1.005-1.982l-.058-27.638h-8.561c-.958-.191-1.657-.536-2.097-1.034-.44-.498-.642-1.053-.604-1.666.039-.613.307-1.168.805-1.666.498-.498 1.283-.747 2.356-.747h10.112c2.72 0 4.942-.01 6.665-.03 1.724-.018 3.036-.028 3.936-.028h1.925zm30.33 15.399c1.187.077 1.925.393 2.212.948.287.556.43 1.178.43 1.868a3.85 3.85 0 0 1-.459 1.838c-.306.575-1.034.9-2.183.977v10.802c0 1.226-.345 2.069-1.035 2.528-.689.46-1.436.69-2.24.69-.728 0-1.37-.259-1.925-.776-.556-.517-.833-1.33-.833-2.442V71.69h-14.48v10.745c0 1.226-.345 2.068-1.034 2.528-.69.46-1.418.69-2.184.69-.727 0-1.37-.26-1.924-.776-.556-.517-.834-1.331-.834-2.442V53.073c0-.69.115-1.254.345-1.695.23-.44.527-.775.89-1.005a3.72 3.72 0 0 1 1.207-.489c.44-.095.872-.143 1.293-.143.613 0 1.14.22 1.58.66.44.441.661 1.16.661 2.155V66.06h14.48V53.073c0-.69.115-1.254.344-1.695.23-.44.527-.775.891-1.005a3.72 3.72 0 0 1 1.207-.489c.44-.095.871-.143 1.292-.143.69 0 1.245.22 1.667.66.421.441.632 1.16.632 2.155V66.06zm36.477 4.022a29.283 29.283 0 0 1-1.465 4.223 28.335 28.335 0 0 1-2.27 4.252 21.067 21.067 0 0 1-3.045 3.706c-1.149 1.111-2.413 1.954-3.792 2.529-1.188.46-2.346.842-3.476 1.149-1.13.306-2.29.46-3.477.46-.995 0-2.001-.154-3.016-.46-1.015-.307-2.04-.632-3.074-.977-1.609-.575-2.96-1.408-4.051-2.5a13.803 13.803 0 0 1-2.643-3.677 17.549 17.549 0 0 1-1.465-4.338 23.386 23.386 0 0 1-.402-6.263c.038-.575.095-1.13.172-1.666.191-1.188.546-2.48 1.063-3.879a29.362 29.362 0 0 1 1.896-4.108 25.54 25.54 0 0 1 2.528-3.735c.939-1.149 1.925-2.087 2.96-2.815a16.273 16.273 0 0 1 4.337-2.011 16.8 16.8 0 0 1 4.798-.69c2.643 0 5.133.651 7.47 1.954 2.336 1.302 4.194 3.16 5.573 5.573a14.655 14.655 0 0 1 1.408 3.907c.287 1.38.431 2.74.431 4.08a30.496 30.496 0 0 1-.46 5.286zM252.06 80.31a11.782 11.782 0 0 0 3.563-2.873 17.525 17.525 0 0 0 2.47-3.879 19.453 19.453 0 0 0 1.437-4.366c.306-1.514.46-2.96.46-4.339 0-.996-.096-1.982-.288-2.959a11.608 11.608 0 0 0-.92-2.786c-.88-1.61-2.096-2.835-3.648-3.678a10.145 10.145 0 0 0-4.912-1.264c-.996 0-1.954.163-2.873.489-.92.325-1.8.775-2.643 1.35-.996.766-1.887 1.714-2.672 2.844a19.887 19.887 0 0 0-1.983 3.591 21.733 21.733 0 0 0-1.235 3.879c-.287 1.321-.43 2.576-.43 3.763 0 1.494.19 2.92.574 4.28.383 1.36.976 2.558 1.78 3.592a8.834 8.834 0 0 0 3.017 2.47c1.207.614 2.653.92 4.339.92.65 0 1.33-.096 2.04-.287a9.151 9.151 0 0 0 1.924-.747z"/>
</svg>
