<svg xmlns="http://www.w3.org/2000/svg" width="32" height="32" viewBox="0 0 32 32">
    <g fill="none" fill-rule="evenodd">
        <circle cx="16" cy="16" r="14" stroke="#5275A5" stroke-width="2" opacity=".9"/>
        <path fill="#5275A5" fill-rule="nonzero" d="M21.877 18.344a3.192 3.192 0 0 1-.357 1.523 3.185 3.185 0 0 1-.963 1.075 4.453 4.453 0 0 1-1.561.73 8.739 8.739 0 0 1-2.167.22h-5.048V10.108h4.458c.703-.013 1.406.021 2.104.102.467.06.92.194 1.344.4.428.269.777.648 1.01 1.1.231.39.35.84.341 1.295a2.547 2.547 0 0 1-.466 1.507 2.716 2.716 0 0 1-1.273.974v.063c.7.11 1.352.43 1.871.918.483.5.739 1.18.707 1.877zm-4.062-4.962a1.248 1.248 0 0 0-.155-.573.983.983 0 0 0-.49-.432 2.307 2.307 0 0 0-.745-.134c-.287-.007-1.134-.007-1.7-.007h-.218v2.45h.396c.544 0 1.351-.009 1.569-.017.233-.015.461-.07.676-.164.22-.083.404-.242.52-.448.099-.211.15-.442.147-.675zm.793 4.907a1.363 1.363 0 0 0-.233-.84 1.491 1.491 0 0 0-.715-.456 2.563 2.563 0 0 0-.792-.117c-.334-.008-.784-.008-1.351-.008h-1.01v2.897h.171c.823 0 1.817 0 2.136-.016.33-.013.655-.082.963-.204.26-.093.484-.27.636-.503.133-.228.2-.489.195-.753z"/>
    </g>
</svg>
