<svg xmlns="http://www.w3.org/2000/svg" width="33" height="32" viewBox="0 0 33 32">
    <g fill="none" fill-rule="evenodd" transform="translate(.054)">
        <circle cx="15.946" cy="16" r="14" stroke="#FF8D00" stroke-width="2" opacity=".9"/>
        <path fill="#FF8D00" fill-rule="nonzero" d="M13.417 16.539a1.106 1.106 0 0 0-1.49.37 1.03 1.03 0 0 0 .388 1.432c.81.476 1.682.836 2.592 1.07l-2.449 2.366a1.028 1.028 0 0 0 0 1.482c.43.413 1.11.413 1.54 0l2.457-2.366 2.45 2.366c.43.413 1.109.413 1.54 0a1.028 1.028 0 0 0 0-1.482l-2.4-2.316a7.12 7.12 0 0 0 2.55-1.179 1.028 1.028 0 0 0 .228-1.465 1.12 1.12 0 0 0-1.523-.219 4.542 4.542 0 0 1-2.643.926h-.084v.421h-.008l.008-.42a6.51 6.51 0 0 1-3.156-.986zm2.912-8.118a3.891 3.891 0 0 1 2.768 1.146 3.891 3.891 0 0 1 1.145 2.77 3.914 3.914 0 1 1-7.826 0c0-1.047.414-2.048 1.146-2.77a3.891 3.891 0 0 1 2.767-1.146zm0 2.105a1.8 1.8 0 0 0-1.28.53 1.8 1.8 0 0 0-.53 1.28 1.81 1.81 0 1 0 3.089-1.28 1.8 1.8 0 0 0-1.279-.53z"/>
    </g>
</svg>
