<svg xmlns="http://www.w3.org/2000/svg" width="33" height="32" viewBox="0 0 33 32">
    <g fill="none" fill-rule="evenodd" transform="translate(.081)">
        <path fill="#78BEFF" fill-rule="nonzero" d="M23.563 11.133a5.598 5.598 0 0 1-1.784.522 3.273 3.273 0 0 0 1.371-1.836 6.088 6.088 0 0 1-1.977.808 2.737 2.737 0 0 0-2.264-1.364c-1.717 0-3.114 1.802-3.114 3.638-.002.255.027.51.085.758a8.687 8.687 0 0 1-6.413-3.478 3.61 3.61 0 0 0-.42 1.676 3.377 3.377 0 0 0 1.388 2.762 2.913 2.913 0 0 1-1.414-.413v.042a3.284 3.284 0 0 0 2.5 3.26 2.958 2.958 0 0 1-1.406.058 3.138 3.138 0 0 0 2.903 2.308 5.98 5.98 0 0 1-3.862 1.423c-.248 0-.495-.017-.74-.05 1.399.97 3.06 1.492 4.762 1.498 5.723 0 8.845-5.07 8.845-9.457 0-.143 0-.286-.009-.43a6.607 6.607 0 0 0 1.549-1.725z"/>
        <circle cx="15.919" cy="16" r="14" stroke="#78BEFF" stroke-width="2" opacity=".9"/>
    </g>
</svg>
