<svg xmlns="http://www.w3.org/2000/svg" width="32" height="32" viewBox="0 0 32 32">
    <g fill="none" fill-rule="evenodd">
        <path d="M0 0h32v32H0z"/>
        <path fill="#FFC300" fill-rule="nonzero" d="M14.8 3a1.2 1.2 0 1 1 2.4 0v3a1.2 1.2 0 1 1-2.4 0V3zm0 23a1.2 1.2 0 1 1 2.4 0v3a1.2 1.2 0 1 1-2.4 0v-3zM5.96 7.656A1.2 1.2 0 1 1 7.655 5.96L9.777 8.08A1.2 1.2 0 1 1 8.08 9.777l-2.12-2.12zM22.222 23.92a1.2 1.2 0 1 1 1.697-1.697l2.12 2.12a1.2 1.2 0 1 1-1.696 1.698l-2.121-2.121zM29 14.8a1.2 1.2 0 1 1 0 2.4h-3a1.2 1.2 0 1 1 0-2.4h3zm-23 0a1.2 1.2 0 1 1 0 2.4H3a1.2 1.2 0 1 1 0-2.4h3zM24.344 5.96a1.2 1.2 0 1 1 1.697 1.696L23.92 9.777a1.2 1.2 0 1 1-1.697-1.697l2.12-2.12zM8.08 22.222a1.2 1.2 0 1 1 1.697 1.697l-2.12 2.12a1.2 1.2 0 1 1-1.698-1.696l2.121-2.121z"/>
        <circle cx="16" cy="16" r="6.3" stroke="#FFC300" stroke-width="2.4"/>
    </g>
</svg>
