<svg xmlns="http://www.w3.org/2000/svg" width="20" height="24" viewBox="0 0 20 24">
    <g fill="none" fill-rule="evenodd">
        <path fill="none" d="M0 0h20v24H0z"/>
        <path fill="#C1C1C1" d="M12.995 16.394c-.004-.676-.474-1.101-1.22-1.103-.568-.003-1.136-.005-1.705.002-.156.002-.237-.042-.278-.174-.084-.258-.199-.51-.266-.77-.307-1.218-.331-2.45-.192-3.686.07-.614.2-1.221.46-1.8.053-.117.12-.165.269-.165.561.009 1.122.004 1.686.002.784-.002 1.244-.418 1.247-1.132.002-.405 0-.807.002-1.212 0-.416.005-.833 0-1.25-.01-.672-.48-1.097-1.223-1.1-.57-.005-1.137.008-1.707-.005a2.092 2.092 0 0 0-1.374.453c-.643.499-1.06 1.14-1.403 1.824-.714 1.41-1.081 2.904-1.227 4.445a13.296 13.296 0 0 0 .822 6.092c.34.89.78 1.733 1.484 2.444.485.49 1.06.776 1.818.737.518-.026 1.043-.002 1.563-.004.772-.004 1.244-.427 1.247-1.119.002-.826 0-1.652-.003-2.479z"/>
    </g>
</svg>
