<svg xmlns="http://www.w3.org/2000/svg" xmlns:xlink="http://www.w3.org/1999/xlink" width="32" height="32" viewBox="0 0 32 32">
    <defs>
        <path id="a" d="M2.626 15.564a.884.884 0 0 1 0 .996l-1.141 1.684c-1.04 1.534-.339 3.595 1.437 4.248l1.953.718c.351.13.59.445.61.806l.107 2.006c.098 1.828 1.926 3.1 3.762 2.625l2.02-.521a.975.975 0 0 1 .986.308l1.315 1.562c1.198 1.423 3.455 1.42 4.65 0l1.315-1.562a.975.975 0 0 1 .986-.308l2.02.521c1.84.476 3.664-.8 3.762-2.625l.107-2.006a.918.918 0 0 1 .61-.806l1.953-.718c1.78-.655 2.474-2.717 1.437-4.248l-1.14-1.684a.884.884 0 0 1 0-.996l1.14-1.684c1.039-1.534.339-3.594-1.437-4.247l-1.953-.719a.918.918 0 0 1-.61-.806l-.107-2.006c-.098-1.827-1.926-3.1-3.762-2.625L20.626 4a.975.975 0 0 1-.986-.308l-1.315-1.563c-1.198-1.422-3.454-1.42-4.65 0L12.36 3.691a.974.974 0 0 1-.986.308l-2.02-.522c-1.84-.475-3.664.802-3.762 2.625L5.485 8.11a.918.918 0 0 1-.61.805l-1.953.719c-1.78.654-2.474 2.716-1.437 4.247l1.14 1.684z"/>
    </defs>
    <g fill="none" fill-rule="evenodd">
        <path fill="none" d="M0 0h32v32H0z"/>
        <use fill="#FFF" xlink:href="#a"/>
        <path stroke="#FF6700" stroke-width="1.7" d="M3.33 15.087c.4.59.4 1.36 0 1.95L2.188 18.72c-.725 1.07-.238 2.508 1.026 2.973l1.954.718a1.767 1.767 0 0 1 1.164 1.558l.108 2.007c.069 1.28 1.374 2.19 2.7 1.847l2.02-.521c.678-.175 1.401.05 1.85.583l1.314 1.563c.858 1.018 2.493 1.017 3.35 0l1.315-1.563a1.825 1.825 0 0 1 1.849-.583l2.02.521c1.327.343 2.631-.568 2.7-1.847l.108-2.007a1.767 1.767 0 0 1 1.165-1.558l1.953-.718c1.265-.465 1.75-1.903 1.026-2.973l-1.14-1.684c-.4-.59-.4-1.36 0-1.95l1.14-1.684c.725-1.07.238-2.508-1.026-2.973l-1.954-.718a1.768 1.768 0 0 1-1.164-1.558l-.108-2.006c-.069-1.28-1.374-2.19-2.7-1.848l-2.02.522a1.825 1.825 0 0 1-1.85-.584l-1.314-1.562c-.858-1.019-2.493-1.018-3.35 0l-1.314 1.562a1.824 1.824 0 0 1-1.85.584L9.141 4.3c-1.327-.343-2.631.568-2.7 1.848l-.108 2.006a1.768 1.768 0 0 1-1.165 1.558l-1.953.718c-1.265.466-1.75 1.904-1.026 2.974l1.14 1.683z"/>
        <rect width="4" height="5" x="10" y="10" stroke="#FF6700" stroke-width="2" rx="2"/>
        <rect width="4" height="5" x="18" y="17" stroke="#FF6700" stroke-width="2" rx="2"/>
        <path stroke="#FF6700" stroke-linecap="round" stroke-width="2" d="M12.2 22.1l7.5-11.9"/>
    </g>
</svg>
