<svg xmlns="http://www.w3.org/2000/svg" width="32" height="32" viewBox="0 0 32 32">
    <g fill="none" fill-rule="evenodd">
        <path d="M0 0h32v32H0z"/>
        <path fill="#75A3D0" fill-rule="nonzero" d="M14.686 29.212v-3.674l-2.083 1.224-.997-.612v-1.4l3.08-1.75v-2.45l-2.446 1.4V19.5l-2.446 1.225v3.5l-.996.7-.815-.613V21.95L4.54 23.788 3 23.175v-1.488l3.443-1.837-2.265-1.05v-1.4l1.359-.7 3.26 1.838 2.175-1.226h-.09l-2.265-1.225 2.174-1.312-2.174-1.225-3.171 1.75-1.268-.613v-1.312l2.174-1.225L3 10.488V9l1.45-.613 3.442 1.838V7.863l.906-.7 1.178.7-.091 3.587 2.265 1.225v-2.538l2.446 1.226v-2.45l-3.08-1.75V5.936l.996-.612 2.084 1.225V2.788L15.864 2l1.178.788v3.675l2.355-1.226 1.36.7v1.225l-3.715 1.75v2.45l2.446-1.312v2.625l2.446-1.225V7.688l.906-.526.996.526v2.45L27.46 8.3l1.359.7v1.4l-3.352 1.838 2.174 1.137v1.313l-1.178.524-3.26-1.837-2.175 1.4 2.174 1.312-2.265 1.226 2.356 1.137 3.261-1.75 1.178.7v1.225l-1.993 1.05L29 21.512v1.4l-1.54.613-3.352-1.75v2.363l-.906.612-1.178-.438v-3.5L19.578 19.5v2.363l-2.446-1.313V23l3.08 1.75v1.4l-.996.525-2.084-1.225v3.675L15.864 30l-1.178-.788zm-.906-13.125l1.178 1.75h2.174l.997-1.75-1.087-1.837h-2.174l-1.088 1.837z"/>
    </g>
</svg>
