<svg xmlns="http://www.w3.org/2000/svg" width="34" height="34" viewBox="0 0 34 34">
    <g fill="#FFF" fill-rule="evenodd" transform="translate(.6 -1.5)">
        <path fill="none" d="M.4 2.5h32v32H.4z"/>
        <path stroke="#787DA3" stroke-width="2" d="M4.812 18.912a1.993 1.993 0 0 1 .004-2.828L15.692 5.208c.39-.39 1.164-.708 1.703-.708H24.4c1.105 0 2 .887 2 2v7.005c0 .55-.321 1.316-.708 1.703L14.816 26.084a2 2 0 0 1-2.828.004l-7.176-7.176z"/>
        <path stroke="#787DA3" stroke-width="2" d="M5.812 24.912a1.999 1.999 0 0 1 0-2.823L18.696 9.203c.388-.388 1.159-.703 1.698-.703H27.4c1.105 0 2 .887 2 2v7.005c0 .55-.313 1.308-.703 1.698L15.81 32.09c-.78.78-2.044.778-2.823 0l-7.176-7.177z"/>
        <circle cx="24" cy="14" r="2" stroke="#787DA3" stroke-width="2"/>
    </g>
</svg>
