<svg xmlns="http://www.w3.org/2000/svg" width="38" height="38" viewBox="0 0 38 38">
    <g fill="none" fill-rule="evenodd">
        <circle cx="19" cy="19" r="17" stroke="#FF8D00" stroke-width="2" opacity=".9"/>
        <path fill="#FF8D00" fill-rule="nonzero" d="M15.944 19.64a1.315 1.315 0 0 0-1.77.44 1.222 1.222 0 0 0 .46 1.7 11.9 11.9 0 0 0 3.08 1.27l-2.91 2.81a1.22 1.22 0 0 0 0 1.76c.512.49 1.319.49 1.83 0l2.92-2.81 2.91 2.81c.512.49 1.319.49 1.83 0a1.22 1.22 0 0 0 0-1.76l-2.85-2.75a8.463 8.463 0 0 0 3.03-1.4 1.221 1.221 0 0 0 .27-1.74 1.331 1.331 0 0 0-1.81-.26 5.4 5.4 0 0 1-3.14 1.1h-.1v.5h-.01l.01-.5a7.739 7.739 0 0 1-3.75-1.17zm3.46-9.64a4.626 4.626 0 0 1 3.289 1.361 4.619 4.619 0 0 1 1.361 3.29 4.619 4.619 0 0 1-1.361 3.288 4.653 4.653 0 0 1-6.577 0 4.619 4.619 0 0 1-1.362-3.289c0-1.243.492-2.432 1.362-3.289a4.626 4.626 0 0 1 3.288-1.36zm0 2.5a2.139 2.139 0 0 0-1.52.63c-.402.396-.63.945-.63 1.52a2.152 2.152 0 1 0 3.67-1.52 2.139 2.139 0 0 0-1.52-.63z"/>
    </g>
</svg>
