<svg xmlns="http://www.w3.org/2000/svg" width="38" height="38" viewBox="0 0 38 38">
    <g fill="none" fill-rule="evenodd">
        <circle cx="19" cy="19" r="17" stroke="#5275A5" stroke-width="2" opacity=".9"/>
        <path fill="#5275A5" fill-rule="nonzero" d="M25.997 21.783c.01.63-.135 1.251-.425 1.809-.28.508-.67.945-1.144 1.277a5.294 5.294 0 0 1-1.855.867c-.844.194-1.709.282-2.575.261H14V12.003h5.297a18.68 18.68 0 0 1 2.501.121c.554.07 1.093.231 1.596.476.509.318.923.77 1.2 1.305.275.464.416.997.406 1.538a3.023 3.023 0 0 1-.553 1.79c-.379.53-.906.933-1.514 1.156v.075c.833.13 1.607.51 2.224 1.09.573.594.877 1.4.84 2.23zm-4.827-5.892a1.48 1.48 0 0 0-.184-.68 1.168 1.168 0 0 0-.582-.513 2.743 2.743 0 0 0-.885-.159c-.342-.01-1.348-.01-2.021-.01h-.259v2.91h.47c.647 0 1.607-.01 1.865-.02.277-.017.548-.084.803-.195a1.19 1.19 0 0 0 .618-.531c.117-.25.177-.525.175-.802zm.942 5.827a1.618 1.618 0 0 0-.277-.998 1.772 1.772 0 0 0-.85-.54 3.048 3.048 0 0 0-.94-.14c-.397-.01-.932-.01-1.606-.01h-1.2v3.44h.203c.978 0 2.16 0 2.538-.018.392-.015.78-.097 1.144-.243.31-.11.576-.32.757-.596a1.7 1.7 0 0 0 .23-.895z"/>
    </g>
</svg>
