<svg xmlns="http://www.w3.org/2000/svg" width="38" height="38" viewBox="0 0 38 38">
    <g fill="none" fill-rule="evenodd">
        <path fill="#78BEFF" fill-rule="nonzero" d="M28 13.22a6.656 6.656 0 0 1-2.12.62 3.887 3.887 0 0 0 1.63-2.18 7.237 7.237 0 0 1-2.35.96A3.253 3.253 0 0 0 22.47 11c-2.04 0-3.7 2.14-3.7 4.32-.002.303.031.605.1.9a10.325 10.325 0 0 1-7.62-4.13 4.284 4.284 0 0 0-.5 1.99 4.009 4.009 0 0 0 1.65 3.28 3.463 3.463 0 0 1-1.68-.49v.05a3.9 3.9 0 0 0 2.97 3.87c-.318.093-.648.14-.98.14a3.937 3.937 0 0 1-.69-.07 3.728 3.728 0 0 0 3.45 2.74 7.108 7.108 0 0 1-4.59 1.69 6.4 6.4 0 0 1-.88-.06 10 10 0 0 0 5.66 1.78c6.8 0 10.51-6.02 10.51-11.23 0-.17 0-.34-.01-.51A7.848 7.848 0 0 0 28 13.22z"/>
        <circle cx="19" cy="19" r="17" stroke="#78BEFF" stroke-width="2" opacity=".9"/>
    </g>
</svg>
