<svg xmlns="http://www.w3.org/2000/svg" xmlns:xlink="http://www.w3.org/1999/xlink" width="46" height="46" viewBox="0 0 46 46">
    <defs>
        <path id="b" d="M10 0h46v46H10z"/>
        <filter id="a" width="143.5%" height="143.5%" x="-21.7%" y="-17.4%" filterUnits="objectBoundingBox">
            <feOffset dy="2" in="SourceAlpha" result="shadowOffsetOuter1"/>
            <feGaussianBlur in="shadowOffsetOuter1" result="shadowBlurOuter1" stdDeviation="3"/>
            <feColorMatrix in="shadowBlurOuter1" values="0 0 0 0 0.70057398 0 0 0 0 0.241707244 0 0 0 0 0.112201301 0 0 0 0.6 0"/>
        </filter>
    </defs>
    <g fill="none" fill-rule="evenodd">
        <path fill="#FF6700" d="M-10 8h225v48H-10z"/>
        <g transform="translate(-10)">
            <use fill="#000" filter="url(#a)" xlink:href="#b"/>
            <use fill="#FFF" xlink:href="#b"/>
        </g>
        <g>
            <path fill="#FFF" fill-opacity=".319" d="M0 0h46v46H0z"/>
            <path fill="#000" stroke="#000" stroke-width="2" d="M16 18.992A2 2 0 0 1 18 17h19c1.104 0 2 .893 2 1.992v11.016c0 1.1-.898 1.992-1.998 1.992H33v5l-5-5h-9.991A2.001 2.001 0 0 1 16 30.008V18.992z"/>
            <path fill="#FFF" stroke="#000" stroke-width="2" d="M7 9.992C7 8.892 7.89 8 8.991 8H27.01C28.109 8 29 8.893 29 9.992v11.016c0 1.1-.898 1.992-1.998 1.992H23v6l-6-6H9c-1.105 0-2-.893-2-1.992V9.992z"/>
            <path fill="#000" d="M13.5 17a1.5 1.5 0 1 1 0-3 1.5 1.5 0 0 1 0 3zm5 0a1.5 1.5 0 1 1 0-3 1.5 1.5 0 0 1 0 3zm5 0a1.5 1.5 0 1 1 0-3 1.5 1.5 0 0 1 0 3z"/>
        </g>
    </g>
</svg>
