<svg xmlns="http://www.w3.org/2000/svg" xmlns:xlink="http://www.w3.org/1999/xlink" width="46" height="46" viewBox="0 0 46 46">
    <defs>
        <path id="b" d="M10 0h46v46H10z"/>
        <filter id="a" width="143.5%" height="143.5%" x="-21.7%" y="-17.4%" filterUnits="objectBoundingBox">
            <feOffset dy="2" in="SourceAlpha" result="shadowOffsetOuter1"/>
            <feGaussianBlur in="shadowOffsetOuter1" result="shadowBlurOuter1" stdDeviation="3"/>
            <feColorMatrix in="shadowBlurOuter1" values="0 0 0 0 0.70057398 0 0 0 0 0.241707244 0 0 0 0 0.112201301 0 0 0 0.6 0"/>
        </filter>
    </defs>
    <g fill="none" fill-rule="evenodd">
        <path fill="#FF6700" d="M-10 8h225v48H-10z"/>
        <g transform="translate(-10)">
            <use fill="#000" filter="url(#a)" xlink:href="#b"/>
            <use fill="#FFF" xlink:href="#b"/>
        </g>
        <g opacity=".9">
            <path fill="#FFF" fill-opacity=".319" d="M0 0h46v46H0z"/>
            <path fill="#000" d="M33.983 16.584c0 8.475-9.936 16.325-9.936 16.325-.58.458-1.53.458-2.111 0 0 0-9.936-7.85-9.936-16.325C12 10.74 16.921 6 22.992 6c6.07 0 10.991 4.739 10.991 10.584"/>
            <path fill="#FFF" d="M22.992 21.91c-3.05 0-5.53-2.39-5.53-5.326 0-2.936 2.48-5.325 5.53-5.325 3.049 0 5.53 2.39 5.53 5.325 0 2.936-2.481 5.325-5.53 5.325"/>
            <ellipse cx="23" cy="38.5" fill="#FFF" stroke="#000" stroke-width="2" rx="7" ry="2.5"/>
        </g>
    </g>
</svg>
