<svg xmlns="http://www.w3.org/2000/svg" xmlns:xlink="http://www.w3.org/1999/xlink" width="46" height="46" viewBox="0 0 46 46">
    <defs>
        <path id="b" d="M10 0h46v46H10z"/>
        <filter id="a" width="143.5%" height="143.5%" x="-21.7%" y="-17.4%" filterUnits="objectBoundingBox">
            <feOffset dy="2" in="SourceAlpha" result="shadowOffsetOuter1"/>
            <feGaussianBlur in="shadowOffsetOuter1" result="shadowBlurOuter1" stdDeviation="3"/>
            <feColorMatrix in="shadowBlurOuter1" values="0 0 0 0 0.70057398 0 0 0 0 0.241707244 0 0 0 0 0.112201301 0 0 0 0.6 0"/>
        </filter>
    </defs>
    <g fill="none" fill-rule="evenodd">
        <path fill="#FF6700" d="M-10 8h225v48H-10z"/>
        <g transform="translate(-10)">
            <use fill="#000" filter="url(#a)" xlink:href="#b"/>
            <use fill="#FFF" xlink:href="#b"/>
        </g>
        <g>
            <path fill="#FFF" fill-opacity=".319" d="M0 0h46v46H0z"/>
            <circle cx="23" cy="23" r="15" stroke="#000" stroke-width="4"/>
            <path fill="#000" fill-rule="nonzero" d="M23 12c-6.074 0-11 4.926-11 11s4.926 11 11 11 11-4.926 11-11-4.927-11-11-11zm1.624 2.195c.18-.29.562-.524 1.56-.18 1 .348 1.705.774 2.264 1.16.556.388 1.815 1.458 2.175 2.126.367.665.447.987.267 1.185-.355.384-3.541 1.367-3.918 1.41-.377.042-1.01.168-1.568-.22-.291-.205-.661-.613-.726-1.55-.067-.938-.234-3.644-.054-3.931zm-1.79 7.661a1.27 1.27 0 1 1 0 2.54 1.27 1.27 0 0 1 0-2.54zm-7.426-4.623a8.956 8.956 0 0 1 1.796-1.8c.537-.413 1.94-1.283 2.686-1.426.746-.142 1.076-.124 1.208.11.257.454.222 3.788.148 4.16-.075.372-.147 1.012-.686 1.427-.283.217-.785.443-1.7.22-.911-.225-3.54-.892-3.76-1.15-.22-.258-.327-.695.308-1.541zm1.245 12.104c-.311.134-.759.112-1.384-.742a8.788 8.788 0 0 1-1.201-2.24c-.239-.635-.667-2.229-.588-2.983.083-.756.197-1.067.46-1.126.509-.116 3.688.886 4.023 1.065.333.183.926.437 1.164 1.072.124.335.197.88-.282 1.69-.48.81-1.88 3.128-2.192 3.264zm8.866 2.873a9.053 9.053 0 0 1-2.518.338c-.68 0-2.324-.162-3.004-.498-.676-.342-.928-.558-.892-.823.072-.519 2.125-3.145 2.413-3.394.287-.25.731-.715 1.411-.715.358 0 .893.127 1.482.858.59.733 2.27 2.858 2.289 3.198.017.338-.161.75-1.18 1.036zm6.547-6.227c-.215.649-.88 2.158-1.415 2.697-.533.54-.817.712-1.057.594-.473-.23-2.326-3.001-2.474-3.352-.147-.348-.45-.918-.238-1.563.112-.341.4-.811 1.279-1.142.878-.33 3.424-1.264 3.75-1.173.331.089.663.386.618 1.443a9.107 9.107 0 0 1-.463 2.496z"/>
        </g>
    </g>
</svg>
