<svg xmlns="http://www.w3.org/2000/svg" xmlns:xlink="http://www.w3.org/1999/xlink" width="46" height="46" viewBox="0 0 46 46">
    <defs>
        <path id="b" d="M10 0h46v46H10z"/>
        <filter id="a" width="143.5%" height="143.5%" x="-21.7%" y="-17.4%" filterUnits="objectBoundingBox">
            <feOffset dy="2" in="SourceAlpha" result="shadowOffsetOuter1"/>
            <feGaussianBlur in="shadowOffsetOuter1" result="shadowBlurOuter1" stdDeviation="3"/>
            <feColorMatrix in="shadowBlurOuter1" values="0 0 0 0 0.70057398 0 0 0 0 0.241707244 0 0 0 0 0.112201301 0 0 0 0.6 0"/>
        </filter>
    </defs>
    <g fill="none" fill-rule="evenodd">
        <path fill="#FF6700" d="M-10 8h225v48H-10z"/>
        <g transform="translate(-10)">
            <use fill="#000" filter="url(#a)" xlink:href="#b"/>
            <use fill="#FFF" xlink:href="#b"/>
        </g>
        <g>
            <path fill="#FFF" fill-opacity=".319" d="M0 0h46v46H0z"/>
            <path fill="#000" d="M23.535 28.64a.994.994 0 0 1 .511-1.312l12.788-5.694a1 1 0 0 1 1.318.499l1.634 3.67a.994.994 0 0 1-.511 1.313l-12.788 5.693a1 1 0 0 1-1.318-.498l-1.634-3.67zm-2.44-5.481a.994.994 0 0 1 .511-1.312l12.788-5.694a1 1 0 0 1 1.317.498l1.635 3.671a.994.994 0 0 1-.512 1.312l-12.788 5.694a1 1 0 0 1-1.317-.498l-1.634-3.671zm-2.44-5.481a.994.994 0 0 1 .51-1.312l12.789-5.694a1 1 0 0 1 1.317.498l1.634 3.671a.994.994 0 0 1-.511 1.312l-12.788 5.694a1 1 0 0 1-1.317-.498l-1.635-3.671zm-2.441-5.482a.994.994 0 0 1 .511-1.312l12.788-5.693a1 1 0 0 1 1.318.498l1.634 3.67a.994.994 0 0 1-.511 1.313l-12.788 5.694a1 1 0 0 1-1.318-.499l-1.634-3.67z"/>
            <path fill="#FFF" d="M32.674 24.581l3.654-1.627 1.627 3.655-3.654 1.627zM30.234 19.1l3.654-1.627 1.627 3.654-3.654 1.627zM27.793 13.619l3.655-1.627 1.627 3.654-3.655 1.627zM25.353 8.138l3.654-1.627 1.627 3.654-3.654 1.627z"/>
            <path stroke="#000" stroke-linecap="round" stroke-width="1.401" d="M36.086 31.081l-12.058 5.262L12.596 9.548 5 6.283"/>
            <path stroke="#000" stroke-linecap="round" stroke-width="1.961" d="M9.621 8.27L5 6.282"/>
            <path fill="#000" d="M27.763 36.175c0 2.073-1.662 3.754-3.712 3.754-2.05 0-3.712-1.68-3.712-3.754 0-2.073 1.661-3.754 3.712-3.754 2.05 0 3.712 1.68 3.712 3.754"/>
            <path stroke="#000" stroke-linecap="round" stroke-width="2.241" d="M27.763 36.175c0 2.073-1.662 3.754-3.712 3.754-2.05 0-3.712-1.68-3.712-3.754 0-2.073 1.661-3.754 3.712-3.754 2.05 0 3.712 1.68 3.712 3.754z"/>
            <path fill="#FFF" d="M24.05 38.938c-1.506 0-2.73-1.24-2.73-2.763s1.224-2.762 2.73-2.762c1.507 0 2.732 1.239 2.732 2.762s-1.225 2.763-2.731 2.763"/>
            <path fill="#FFF" d="M24.05 33.13c-1.663 0-3.011 1.363-3.011 3.045s1.348 3.046 3.012 3.046c1.663 0 3.011-1.364 3.011-3.046 0-1.682-1.348-3.046-3.011-3.046m0 .567c1.351 0 2.45 1.112 2.45 2.479s-1.099 2.48-2.45 2.48c-1.352 0-2.452-1.113-2.452-2.48s1.1-2.48 2.452-2.48"/>
            <path fill="#000" d="M24.821 36.175c0 .43-.345.78-.77.78a.775.775 0 0 1-.77-.78c0-.43.344-.78.77-.78.425 0 .77.35.77.78"/>
        </g>
    </g>
</svg>
