<svg xmlns="http://www.w3.org/2000/svg" width="108" height="22" viewBox="0 0 108 22">
    <g fill="#FF6700" fill-rule="evenodd">
        <path d="M23.815 1.22l-7.69 19.594h7.297L31.114 1.22zM14.29 1.22l-3.294 10.69c0 .019-3.222-10.69-3.222-10.69H0l7.635 19.594h6.683L21.925 1.22H14.29zM97.311 10.098h-1.118V6.263h1.118c1.398 0 2.126.74 2.126 1.946 0 1.205-.756 1.89-2.126 1.89zM78.52 14.986c-2.21 0-4-1.755-4-3.92s1.79-3.92 4-3.92c2.209 0 4 1.755 4 3.92s-1.791 3.92-4 3.92zM35.263 13.69s1.513-5.637 1.513-5.658l1.48 5.658h-2.993zm67.138-.85c2.322-.274 3.86-2.22 3.86-5.015 0-4.192-2.741-6.604-8.083-6.604h-9.033v8.57C88.507 4.539 83.949.464 78.416.465c-5.87 0-10.641 4.584-10.8 10.297V1.22H60.68s-.004 9.89-.01 9.886L54.697 1.22H47.65v19.038L40.857 1.22h-7.999l-7.13 19.594h7.718l.615-2.466h5.424l.645 2.466h7.718l-.191-.535.193.535h6.734s-.009-9.799-.001-9.799l5.929 9.8h7.104v-9.467c.159 5.714 4.93 10.298 10.8 10.298 5.533 0 10.091-4.074 10.729-9.328v8.496h7.048v-6.467l3.495 6.467h8.053l-5.34-7.976z"/>
    </g>
</svg>
