<svg xmlns="http://www.w3.org/2000/svg" width="191" height="60" viewBox="0 0 191 60">
    <g fill="none" fill-rule="evenodd">
        <path fill="#000" d="M174.814 55.841c-.023.143-.023.283-.023.424 0 1.337 1.38 1.676 2.701 1.676 2.962 0 3.126-1.863 3.126-2.416 0-1.222-1.1-1.257-2.539-1.515-.364-.07-.784-.153-.784-.634 0-.305.233-.646 1.11-.646.796 0 .88.258.88.447 0 .07 0 .151-.014.22h1.602c.026-.114.035-.22.035-.34 0-.89-.676-1.523-2.443-1.523-2.246 0-3.018 1.148-3.018 2.159 0 1.256 1.157 1.325 2.375 1.61.527.115.946.234.946.715 0 .467-.561.728-1.053.728-.913 0-1.09-.376-1.09-.693 0-.07 0-.14.013-.212h-1.824zm-5.303-1.666c.354-1.281 1.149-1.445 1.605-1.445.178 0 1.16-.033 1.16.928 0 .177-.037.457-.047.517h-2.718zm2.238 1.82c-.165.446-.714.75-1.287.75-.54 0-1.195-.2-1.195-1.162 0-.166.01-.318.045-.483h4.541c.107-.34.223-.796.223-1.112 0-1.023-.42-2.454-2.844-2.454-2.924 0-3.766 2.454-3.766 3.813 0 .988.364 2.594 2.842 2.594 2.084 0 2.903-1.1 3.242-1.947h-1.8zm-4.342-4.345a3.408 3.408 0 0 0-.33-.022c-1.213 0-1.907.551-2.257.974l.177-.845h-1.709l-1.252 5.963h1.778l.527-2.442c.049-.2.082-.399.14-.586.422-1.422 1.534-1.67 2.166-1.67.153 0 .315.014.466.049l.294-1.42zm-12.158 8.242c.33.069.784.104 1.228.104 1.207 0 1.767-.586 2.516-1.96l3.392-6.279h-1.882l-1.906 4.038-.785-4.038h-1.908l1.358 5.893-.164.293c-.224.41-.422.833-1.03.833-.245 0-.432-.023-.561-.082l-.258 1.198zm-3.123-8.794l-1.394 6.622h1.932l1.393-6.622h2.468l.339-1.595h-6.868l-.34 1.595h2.47zm-10.799.66h-1.629l-1.262 5.962h1.778l.713-3.358c.33-1.515 1.08-1.632 1.428-1.632.81 0 .867.681.867.987 0 .187-.05.362-.083.551l-.724 3.452h1.777l.783-3.745c.058-.294.117-.564.117-.846 0-.858-.5-1.595-1.673-1.595-.337 0-1.39-.012-2.197.868h-.025l.13-.645zm-5.851 3.497c-.036.153-.342 1.49-1.616 1.49-.27 0-.809-.07-.809-.505 0-.761.785-.962 1.265-1.043.959-.177 1.124-.247 1.253-.318l-.093.376zm-1.71-1.574c.2-.881.936-.951 1.286-.951.575 0 .75.292.75.563 0 .916-.644.834-1.617.963-1.052.13-2.98.353-2.98 2.185 0 1.36 1.227 1.5 1.857 1.5.41 0 1.278-.057 2.047-.81h.039l.035.589h1.858v-.153c-.081-.01-.199-.069-.199-.387 0-.188.07-.551.106-.695l.598-2.722c.044-.225.105-.435.105-.658 0-.726-.41-1.571-2.388-1.571-.723 0-2.805.011-3.356 2.147h1.86zm-4.68-2.783h1.778l.303-1.395h-1.778l-.303 1.395zm-.174.86l-1.264 5.962h1.777l1.265-5.963h-1.778zm-5.535 2.357l.982-4.612h-1.78l-1.754 8.217h1.778l.388-1.773.783-.68 1.1 2.453h1.966l-1.71-3.381 2.762-2.582h-2.119l-2.396 2.358zm-6.833 2.63c-1.124 0-1.232-.88-1.232-1.327 0-1.102.42-2.688 1.77-2.688 1.218 0 1.226 1.034 1.226 1.362 0 1.41-.607 2.654-1.764 2.654zm-.189 1.196c2.482 0 3.802-1.853 3.802-3.731 0-2.347-1.778-2.676-2.9-2.676-2.903 0-3.79 2.311-3.79 3.744 0 1.092.398 2.663 2.888 2.663zm-9.079-5.41l2.245 5.189h1.896l1.731-8.217h-1.93l-1.052 5.165h-.037l-2.257-5.165h-1.884l-1.732 8.217h1.93l1.066-5.19h.024zm-11.503 2.113c.329-1.622 1.206-1.914 1.72-1.914.468 0 1.148.222 1.148 1.385 0 1.045-.526 2.607-1.815 2.607-.819 0-1.134-.634-1.134-1.384 0-.236.035-.472.081-.694zm-1.028-2.887L93 59.89h1.778l.597-2.78c.422.716 1.37.805 1.766.805 2.364 0 3.348-2.39 3.348-4.01 0-1.258-.644-2.371-2.188-2.371-.456 0-1.311.07-2.094.832l-.035.001.14-.61h-1.567zm-5.104 1.195l-1.017 4.768h1.779l1.018-4.768h1.965l.257-1.195h-5.71l-.256 1.195h1.964zm-7.464 2.243h2.14l-.537 2.525h1.778l1.276-5.963h-1.78L84.575 54h-2.139l.479-2.243h-1.78L79.86 57.72h1.778l.539-2.525zm-7.583-1.02c.351-1.281 1.146-1.445 1.603-1.445.176 0 1.16-.033 1.16.928a3.8 3.8 0 0 1-.047.517h-2.716zm2.235 1.82c-.164.446-.714.75-1.287.75-.538 0-1.195-.2-1.195-1.162 0-.166.011-.318.047-.483h4.54c.106-.34.223-.796.223-1.112 0-1.023-.42-2.454-2.844-2.454-2.924 0-3.765 2.454-3.765 3.813 0 .988.362 2.594 2.84 2.594 2.086 0 2.905-1.1 3.243-1.947h-1.802zm-10.344.526l1.019-4.764h-1.78L64.45 57.72h5.124l-.328 1.548h1.521l.68-2.747h-.984l1.02-4.764h-1.779l-1.02 4.764h-2.199zm-10.343-7.018c-.083.575.117 1.62 2.058 1.62.585 0 2.212-.165 2.575-1.62h-1.3c-.104.575-.63.788-1.1.788-.957 0-1.004-.506-.923-.788h-1.31zm-.176 6.129l.83-3.875h-1.777l-1.277 5.963h2.107l3.02-3.874-.833 3.874h1.778l1.277-5.963h-2.106l-3.019 3.875zm-4.4-3.875l-1.275 5.963h1.779l1.274-5.963h-1.777zm-5.03 3.318h.759c.667 0 .95.237.95.673 0 .435-.318.773-1.23.773h-.785l.306-1.446zm-1.066-3.318l-1.274 5.963h3.299c2.164 0 2.597-1.455 2.597-2.242 0-1.56-1.38-1.596-2.199-1.596h-1.1l.455-2.125H45.47zm-6.33 3.438h2.142l-.54 2.525h1.78l1.274-5.963h-1.778L41.538 54h-2.14l.479-2.243h-1.778l-1.275 5.963h1.778l.538-2.525zm-7.372 0h2.143l-.539 2.525h1.777l1.276-5.963h-1.778L34.167 54h-2.14l.48-2.243h-1.78l-1.275 5.963h1.778l.538-2.525zm-7.84.437l.83-3.875h-1.777l-1.275 5.963h2.105l3.02-3.874L26 57.72h1.778l1.276-5.963h-2.107l-3.02 3.875zm-12.686.492l1.395-6.621h-1.931l-1.73 8.217h10.939l1.733-8.217h-1.932l-1.393 6.621H15.75l1.39-6.621h-1.928l-1.393 6.621h-2.577z"/>
        <path fill="#FF6700" d="M42.218 2.163L28.585 36.898H41.52L55.156 2.163zM25.332 2.163l-5.838 18.949c0 .034-5.712-18.949-5.712-18.949H0l13.535 34.735h11.847L38.867 2.163H25.332zM172.506 17.901l-1.982.001v-6.801h1.982c2.479 0 3.769 1.311 3.769 3.45 0 2.135-1.341 3.35-3.769 3.35zm-33.313 8.666c-3.917 0-7.092-3.112-7.092-6.949 0-3.838 3.175-6.95 7.092-6.95 3.915 0 7.09 3.112 7.09 6.95 0 3.837-3.175 6.949-7.09 6.949zm-76.68-2.3s2.68-9.993 2.68-10.03l2.624 10.03h-5.305zm119.015-1.508c4.117-.484 6.844-3.935 6.844-8.888 0-7.433-4.86-11.709-14.329-11.709H158.03v15.194C156.9 8.044 148.82.82 139.01.822c-10.404 0-18.864 8.126-19.145 18.255V2.162h-12.297s-.006 17.532-.015 17.525L96.96 2.163H84.47v33.749L72.428 2.163h-14.18l-12.64 34.735H59.29l1.09-4.372h9.616l1.143 4.372h13.681l-.339-.95.343.95h11.938s-.016-17.371-.002-17.371l10.51 17.371h12.594V20.116c.281 10.13 8.74 18.257 19.145 18.257 9.81 0 17.89-7.223 19.02-16.536v15.061h12.494V25.432l6.196 11.466 14.276-.001-9.468-14.138z"/>
    </g>
</svg>
