<svg xmlns="http://www.w3.org/2000/svg" xmlns:xlink="http://www.w3.org/1999/xlink" width="40" height="38" viewBox="0 0 40 38">
    <defs>
        <path id="a" d="M27.314 4.687c6.248 6.248 6.248 16.38 0 22.629L16 38 4.686 27.316c-6.248-6.25-6.248-16.38 0-22.63 6.249-6.248 16.38-6.248 22.628 0z"/>
    </defs>
    <g fill="none" fill-rule="evenodd">
        <path fill="#555" fill-opacity=".41" d="M15.904 38s18.845-3.175 20.948-4.571C38.955 32.032 38.298 30 27.95 30c-9.648 0-10.677 1.584-13.093 3.429C12.441 35.274 15.904 38 15.904 38z"/>
        <use fill="#FF6700" xlink:href="#a"/>
        <path stroke="#FFF" stroke-width="3" d="M16 35.937l10.253-9.682c5.663-5.663 5.663-14.845 0-20.508C20.59.084 11.41.084 5.747 5.747s-5.663 14.845-.03 20.478L16 35.937z"/>
        <circle cx="16" cy="16" r="6" stroke="#000" stroke-width="3"/>
    </g>
</svg>
