<?xml version="1.0" encoding="UTF-8" standalone="no"?>
<svg
   xmlns:dc="http://purl.org/dc/elements/1.1/"
   xmlns:cc="http://creativecommons.org/ns#"
   xmlns:rdf="http://www.w3.org/1999/02/22-rdf-syntax-ns#"
   xmlns:svg="http://www.w3.org/2000/svg"
   xmlns="http://www.w3.org/2000/svg"
   viewBox="0 0 166.78667 50.666668"
   height="50.666668"
   width="166.78667"
   xml:space="preserve"
   id="svg2"
   version="1.1"><metadata
     id="metadata8"><rdf:RDF><cc:Work
         rdf:about=""><dc:format>image/svg+xml</dc:format><dc:type
           rdf:resource="http://purl.org/dc/dcmitype/StillImage" /></cc:Work></rdf:RDF></metadata><defs
     id="defs6" /><g
     transform="matrix(1.3333333,0,0,-1.3333333,0,50.666667)"
     id="g10"><g
       transform="scale(0.1)"
       id="g12"><path
         id="path14"
         style="fill:#ffffff;fill-opacity:1;fill-rule:nonzero;stroke:none"
         d="m 162.039,229.32 h 43.59 v 79.641 c 0,40.086 -37.891,48.738 -57.387,48.738 H 0 V 229.32 h 44.8672 v 87.368 H 139.59 c 12.883,0 22.441,-7.719 22.441,-19.68 V 229.32 Z M 58.6719,4.75781 V 121.531 H 0.371094 v 56.66 H 221.633 v -56.66 H 163.32 V 4.75781 H 58.6719 Z M 361.957,149.68 V 4.75781 H 319.293 V 81.4531 l -97.48,96.7379 h 119.371 l 20.773,-28.511 z m 0,208.019 v -41.011 h -66.203 c -20.231,0 -36.793,-10.489 -36.793,-23.168 0,-12.7 16.551,-23.184 36.793,-23.184 h 66.203 V 229.32 h -66.203 c -42.863,0 -77.805,28.879 -77.805,64.192 0,35.304 34.949,64.179 77.805,64.179 h 66.203 z m 156.895,22.25 h 45.796 V 229.32 H 518.852 Z M 361.957,229.32 v 41.016 h 66.582 c 20.231,0 36.602,10.484 36.602,23.184 0,12.691 -16.371,23.168 -36.602,23.168 h -66.582 v 41.011 h 66.582 c 42.672,0 77.805,-28.883 77.805,-64.179 0,-35.321 -35.145,-64.188 -77.805,-64.188 h -66.582 z m 0,-224.56219 V 149.68 l 3.863,-5.16 c 2.211,-2.926 4.789,-7.168 7.91,-13.047 0.192,-0.555 0.372,-0.918 0.563,-1.289 1.469,2.746 4.035,6.796 7.539,12.316 0.734,0.918 1.098,1.453 1.469,2.004 l 24.094,33.672 H 526.02 L 424.859,81.4336 V 4.73438 H 361.957 Z M 652.742,357.699 v -38.07 l -23.914,-18.391 23.914,-24.652 V 229.32 h -17.105 l -70.074,71.918 73.746,56.461 h 13.433 z M 629.199,133.484 V 99.6563 h 16.192 c 2.746,0 5.144,0.1796 7.351,0.3707 V 35.2813 L 629.199,61.9414 V 4.75781 H 526.391 V 178.191 h 126.351 v -44.882 c -2.207,0.175 -4.59,0.175 -7.344,0.175 h -16.199 z m 78.352,224.215 h 45.801 V 229.32 h -45.801 z m -54.809,-38.082 v 38.082 h 49.836 l -49.836,-38.082 z m 0,-90.297 v 47.266 L 698.895,229.32 H 652.742 Z M 796.941,345.926 V 241.09 c -19.863,11.765 -32.925,30.898 -32.925,52.422 0,21.699 13.062,40.828 32.925,52.414 z M 652.742,100.027 c 6.621,0.547 11.778,1.836 15.625,3.852 5.332,2.945 8.11,7.184 8.11,12.516 0,5.507 -2.766,9.746 -8.11,12.699 -3.855,2.195 -9.004,3.668 -15.625,4.226 v 44.871 h 5.52 c 38.078,0 67.312,-4.961 87.551,-15.078 20.234,-9.937 30.339,-24.472 30.339,-43.222 0,-12.52 -5.144,-22.6332 -15.261,-30.5433 C 750.598,81.2617 736.98,76.6719 719.695,75.3906 L 796.941,5.14453 V 178.191 h -0.359 V 4.75781 h 0.359 -116.796 L 652.742,35.2813 Z M 1207.28,229.32 h 43.58 v 79.641 c 0,40.086 -37.88,48.738 -57.37,48.738 H 1045.24 V 229.32 h 44.89 v 87.368 h 94.7 c 12.88,0 22.45,-7.719 22.45,-19.68 z m -197.36,-209.8552 33.29,48.543 c 15.08,-6.25 28.32,-10.6562 40.1,-13.6055 11.77,-2.9492 22.79,-4.414 33.11,-4.414 7.16,0 12.7,0.918 16.91,2.5781 4.05,1.4649 6.07,3.6719 6.07,6.4453 0,4.961 -10.29,8.6328 -30.89,11.0469 -6.63,0.9258 -11.78,1.6406 -15.45,2.0117 -21.7,3.3203 -38.45,8.8281 -50.04,16.9219 -11.58,8.0976 -17.29,18.0118 -17.29,30.1678 0,18.563 11.21,33.645 33.65,45.43 22.45,11.777 51.88,17.668 88.29,17.668 16.73,0 33.11,-1.289 49.29,-4.043 16.17,-2.578 32.56,-6.457 49.1,-11.781 l -31.99,-45.426 c -9.93,4.402 -20.06,7.722 -30.35,10.113 -10.12,2.387 -19.86,3.496 -29.61,3.496 -7.19,0 -12.88,-0.738 -16.91,-2.207 -3.88,-1.465 -5.9,-3.496 -5.9,-6.07 0,-4.961 14.53,-9.203 43.59,-12.871 4.6,-0.746 8.28,-1.098 10.85,-1.465 20.05,-2.766 35.68,-8.274 47.28,-16.5548 11.58,-8.2812 17.28,-18.1914 17.28,-29.9804 0,-19.3282 -11.58,-34.9415 -34.95,-47.0899 C 1192.18,6.08594 1161.83,0 1124.5,0 1105.37,0 1086.24,1.66016 1067.11,4.96094 1048,8.25391 1028.88,13.0156 1009.92,19.4648 Z M 796.941,241.09 v 104.836 c 12.688,7.547 28.125,11.773 44.868,11.773 61.621,0 123.218,0 184.841,0 V 229.32 h -45.798 v 87.368 H 841.824 c -20.23,0 -36.797,-10.489 -36.797,-23.168 0,-12.7 16.555,-23.184 36.797,-23.184 h 123.598 l -30.91,-41.016 h -92.703 c -16.731,0 -32.18,4.41 -44.868,11.77 z m 0,-235.96109 V 178.191 H 991.34 v -47.089 h -92.152 v -16.739 h 83.695 V 70.0508 H 899.188 V 51.6484 H 993.73 V 4.75781 h -196.804 0.554 l -0.539,0.3711 v 0" /></g></g></svg>