<svg xmlns="http://www.w3.org/2000/svg" width="115" height="36" viewBox="0 0 115 36">
    <g fill="none" fill-rule="evenodd">
        <path fill="#000" d="M105.255 33.505c-.014.085-.014.17-.014.254 0 .802.83 1.006 1.626 1.006 1.783 0 1.882-1.118 1.882-1.45 0-.733-.662-.754-1.528-.909-.22-.042-.473-.092-.473-.38 0-.184.14-.388.669-.388.48 0 .53.155.53.268 0 .042 0 .09-.009.132h.964a.872.872 0 0 0 .022-.203c0-.535-.407-.915-1.471-.915-1.353 0-1.818.69-1.818 1.296 0 .753.697.795 1.43.965.318.07.57.141.57.43 0 .28-.338.436-.634.436-.55 0-.656-.225-.656-.415 0-.042 0-.084.008-.127h-1.098zm-3.194-1c.214-.769.692-.867.967-.867.107 0 .698-.02.698.557 0 .106-.022.274-.028.31h-1.637zm1.348 1.092c-.1.267-.43.45-.775.45-.325 0-.72-.12-.72-.697 0-.1.006-.19.028-.29h2.734c.065-.204.134-.477.134-.667 0-.614-.253-1.473-1.712-1.473-1.76 0-2.267 1.473-2.267 2.288 0 .593.218 1.557 1.71 1.557 1.255 0 1.749-.661 1.952-1.168h-1.084zm-2.614-2.607a2.06 2.06 0 0 0-.198-.013c-.731 0-1.15.33-1.36.584l.107-.507h-1.029l-.754 3.578h1.07l.317-1.465c.03-.12.05-.24.085-.352.254-.853.924-1.002 1.304-1.002.092 0 .19.009.281.03l.177-.853zm-7.32 4.945c.198.042.471.063.74.063.725 0 1.063-.352 1.514-1.176l2.042-3.768h-1.133l-1.148 2.423-.472-2.423h-1.149l.818 3.536-.1.176c-.134.246-.253.5-.62.5a.861.861 0 0 1-.337-.05l-.155.72zm-1.88-5.276l-.84 3.973h1.163l.839-3.973h1.486l.204-.957h-4.135l-.205.957h1.487zm-6.503.395h-.98l-.76 3.578h1.07l.43-2.015c.198-.909.65-.98.86-.98.486 0 .521.41.521.593 0 .112-.03.218-.05.331l-.436 2.07h1.07l.471-2.246c.036-.176.071-.338.071-.508 0-.514-.301-.957-1.007-.957-.203 0-.837-.007-1.323.521h-.015l.078-.387zm-3.523 2.1c-.021.091-.206.893-.972.893-.163 0-.488-.042-.488-.303 0-.457.473-.577.762-.626.577-.106.677-.148.754-.19l-.056.225zm-1.029-.946c.12-.528.563-.57.774-.57.346 0 .452.175.452.338 0 .55-.388.5-.974.578-.634.077-1.795.212-1.795 1.31 0 .817.74.9 1.119.9.247 0 .77-.034 1.233-.485h.023l.021.353h1.118v-.092c-.048-.006-.12-.041-.12-.232 0-.113.043-.33.065-.417l.36-1.633c.026-.135.063-.261.063-.395 0-.436-.247-.943-1.438-.943-.435 0-1.69.007-2.02 1.288h1.12zm-2.818-1.67h1.07l.183-.836h-1.07l-.183.837zm-.105.516l-.76 3.578h1.069l.762-3.578h-1.07zm-3.333 1.415l.592-2.767h-1.071l-1.057 4.93h1.07l.234-1.064.471-.408.663 1.472h1.184l-1.03-2.029 1.663-1.549h-1.276l-1.443 1.415zm-4.114 1.578c-.676 0-.741-.528-.741-.796 0-.661.253-1.613 1.065-1.613.734 0 .738.62.738.817 0 .846-.365 1.592-1.062 1.592zm-.113.718c1.494 0 2.289-1.112 2.289-2.239 0-1.408-1.07-1.606-1.747-1.606-1.747 0-2.281 1.387-2.281 2.247 0 .655.24 1.598 1.739 1.598zm-5.467-3.247l1.352 3.114h1.142l1.042-4.93h-1.162L66.33 32.8h-.022l-1.359-3.1h-1.135l-1.042 4.93h1.162l.642-3.113h.014zm-6.926 1.268c.198-.973.727-1.148 1.036-1.148.282 0 .691.133.691.83 0 .628-.317 1.565-1.093 1.565-.493 0-.683-.38-.683-.83 0-.142.022-.284.05-.417zm-.619-1.732l-1.05 4.88h1.07l.36-1.668c.254.43.824.483 1.063.483 1.423 0 2.016-1.434 2.016-2.406 0-.755-.388-1.423-1.318-1.423-.274 0-.789.043-1.26.5h-.022l.085-.366h-.944zm-3.073.717l-.612 2.86h1.071l.613-2.86h1.183l.155-.717h-3.437l-.155.717h1.182zm-4.494 1.346h1.289l-.324 1.515h1.071l.768-3.578h-1.07l-.29 1.346h-1.288l.288-1.346H48.85l-.768 3.578h1.071l.324-1.515zm-4.566-.612c.212-.769.69-.867.966-.867.106 0 .698-.02.698.557 0 .106-.02.274-.028.31h-1.636zm1.346 1.092c-.098.267-.43.45-.775.45-.324 0-.719-.12-.719-.697 0-.1.007-.19.028-.29h2.734c.064-.204.134-.477.134-.667 0-.614-.253-1.473-1.712-1.473-1.76 0-2.267 1.473-2.267 2.288 0 .593.218 1.557 1.71 1.557 1.256 0 1.748-.661 1.952-1.168h-1.085zm-6.228.316l.613-2.859h-1.07l-.768 3.578h3.085l-.197.929h.915l.41-1.648h-.593l.614-2.859h-1.07l-.614 2.859H40.03zm-6.227-4.211c-.05.345.07.972 1.24.972.351 0 1.33-.099 1.55-.972h-.783c-.063.345-.38.473-.663.473-.576 0-.604-.304-.555-.473h-.789zm-.106 3.677l.5-2.325h-1.07l-.769 3.578h1.268l1.818-2.325-.501 2.325h1.07l.77-3.578h-1.268l-1.818 2.325zm-2.65-2.325l-.767 3.578h1.07l.768-3.578h-1.07zm-3.028 1.991h.457c.402 0 .572.142.572.404 0 .26-.192.464-.74.464h-.473l.184-.868zm-.642-1.99l-.767 3.577h1.986c1.303 0 1.564-.873 1.564-1.345 0-.936-.831-.958-1.324-.958h-.663l.275-1.275h-1.07zm-3.811 2.062h1.29l-.325 1.515h1.07l.769-3.578h-1.071l-.29 1.346h-1.288l.289-1.346h-1.071l-.767 3.578h1.07l.324-1.515zm-4.438 0h1.29l-.325 1.515h1.07l.768-3.578h-1.07l-.289 1.346h-1.29l.29-1.346H18.5l-.767 3.578h1.07l.325-1.515zm-4.721.262l.5-2.325h-1.07l-.768 3.578h1.268l1.817-2.325-.5 2.325h1.071l.768-3.578h-1.268l-1.818 2.325zm-7.638.295l.84-3.972H6.446l-1.042 4.93h6.587l1.043-4.93h-1.163l-.839 3.972h-1.55l.838-3.972H9.16l-.839 3.972H6.77z"/>
        <path fill="#FF6700" d="M25.42 1.298l-8.21 20.84H25l8.21-20.84zM15.252 1.298l-3.515 11.369c0 .02-3.44-11.37-3.44-11.37L0 1.299l8.15 20.84h7.132l8.12-20.84h-8.15zM103.865 10.74l-1.193.001v-4.08h1.193c1.492 0 2.27.786 2.27 2.07 0 1.28-.808 2.01-2.27 2.01zm-20.058 5.2c-2.358 0-4.27-1.867-4.27-4.17 0-2.302 1.912-4.17 4.27-4.17 2.358 0 4.27 1.868 4.27 4.17 0 2.303-1.912 4.17-4.27 4.17zm-46.169-1.38s1.615-5.996 1.615-6.018l1.579 6.018h-3.194zm71.66-.905c2.478-.29 4.12-2.36 4.12-5.333 0-4.46-2.926-7.025-8.628-7.025H95.15v9.117c-.68-5.588-5.546-9.922-11.452-9.92-6.264 0-11.357 4.875-11.527 10.952V1.297h-7.404s-.004 10.52-.01 10.515L58.38 1.298h-7.522v20.25l-7.25-20.25h-8.537l-7.61 20.84h8.238l.656-2.622h5.79l.688 2.623h8.237l-.204-.57.206.57h7.188s-.01-10.423-.001-10.423l6.328 10.423h7.583v-10.07c.17 6.078 5.263 10.955 11.527 10.955 5.906 0 10.771-4.334 11.452-9.922v9.037h7.523v-6.88l3.73 6.88 8.596-.001-5.7-8.483z"/>
    </g>
</svg>
