<svg xmlns="http://www.w3.org/2000/svg" width="50" height="30" viewBox="0 0 50 30">
    <g fill="none" fill-rule="evenodd">
        <path fill="#F1AD3D" d="M34.738 29.03l.749-.02.738-.053.725-.092.719-.126.7-.16.69-.195.675-.228.66-.258.646-.291.626-.316.607-.35.592-.374.568-.403.548-.428.528-.452.504-.48.484-.502.455-.524.43-.545.407-.563.377-.588.352-.603.318-.622.294-.641.26-.656.229-.67.196-.686.161-.695.127-.714.093-.719.054-.734.02-.743-.02-.739-.054-.728-.093-.72-.127-.704-.161-.695-.196-.68-.23-.67-.26-.652-.293-.637-.318-.621-.352-.598-.377-.588-.406-.564-.43-.54-.456-.524-.484-.5-.504-.477-.528-.451-.548-.428-.568-.403-.592-.375-.607-.345-.626-.315-.646-.292-.66-.257-.675-.229-.69-.194-.7-.16-.72-.127-.724-.092-.738-.054-.749-.02-.744.02-.738.054-.725.092-.714.126-.7.161-.69.194-.67.229-.66.257-.641.292-.622.315-.606.345-.588.375-.567.403-.548.428-.524.451-.504.477-.48.5-.454.525-.43.54-.402.563-.377.588-.347.598-.323.621-.289.637-.259.651-.225.67-.196.68-.161.696-.127.704-.093.72-.054.728-.02.739.02.743.054.734.093.72.127.713.161.695.196.685.225.67.26.657.288.641.323.622.347.603.377.588.401.563.431.545.455.524.48.501.503.48.524.453.548.428.567.403.588.374.606.35.622.316.64.291.661.258.67.228.69.194.7.16.714.127.725.092.738.054.744.02"/>
        <path fill="#D82332" d="M15.333 29.03l.744-.02.739-.053.724-.092.714-.126.7-.16.69-.195.67-.228.66-.258.642-.291.621-.316.607-.35.587-.374.567-.403.548-.428.524-.452.504-.48.48-.502.454-.524.43-.545.402-.563.377-.588.347-.603.323-.622.289-.641.26-.656.224-.67.196-.686.161-.695.128-.714.093-.719.053-.734.02-.743-.02-.739-.053-.728-.093-.72-.128-.704-.161-.695-.196-.68-.225-.67-.26-.652-.288-.637-.323-.621-.347-.598-.377-.588-.401-.564-.43-.54-.456-.524-.48-.5-.503-.477-.524-.451-.548-.428-.567-.403-.587-.375-.607-.345-.621-.315-.641-.292-.661-.257-.67-.229-.69-.194-.7-.16-.714-.127-.724-.092-.74-.054-.743-.02-.748.02-.74.054-.723.092-.72.126-.7.161-.689.194-.675.229-.66.257-.647.292-.626.315-.607.345-.592.375-.567.403-.548.428-.529.451-.504.477-.484.5-.455.525-.43.54-.407.563-.377.588-.352.598-.318.621-.293.637-.26.651-.23.67-.195.68-.162.696-.127.704-.093.72-.054.728-.02.739.02.743.054.734.093.72.127.713.162.695.195.685.23.67.26.657.293.641.318.622.352.603.377.588.406.563.43.545.456.524.484.501.504.48.529.453.548.428.567.403.592.374.607.35.626.316.646.291.66.258.676.228.69.194.7.16.719.127.724.092.739.054.748.02"/>
        <path fill="#F1AD3D" d="M23.338 5.746h7.706v-.783h-7.04l-.666.783M22.183 7.485h8.861v-.782h-8.396l-.465.782M21.322 9.22h9.722v-.783h-9.38l-.342.783M20.73 10.96h10.314v-.783h-10.07l-.244.782M21.073 19.366h9.995v-.783h-10.24l.245.783M21.811 21.105h9.257v-.782h-9.624l.367.782M22.849 22.84h8.22v-.782h-8.715l.495.782M24.277 24.58h6.791v-.788h-7.48l.69.787M20.383 12.694h10.661v-.782h-10.51l-.151.782M26.88 17.63h4.066v-.781h-3.92l-.146.782M27.203 15.896h3.743v-.787H27.35l-.147.787M20.113 15.109h1.057v.787h-1.008l-.049-.787"/>
        <path fill="#FFFFFE" d="M18.142 14.162l-.069-.005-.068-.01-.064-.01-.064-.01-.058-.01-.064-.009-.064-.01-.068-.01-.068-.009-.079-.005-.088-.005-.093-.005h-.103l-.112.005-.127.01-.142.01-.098.014-.093.015-.083.029-.074.03-.068.033-.064.04-.049.048-.044.043-.029.054-.025.053-.01.059v.058l.015.063.02.063.04.063.048.063.098.093.117.073.137.063.147.053.157.05.161.052.162.059.156.063.147.082.137.103.122.12.103.152.078.184.05.219.019.262-.02.306-.034.229-.059.2-.078.184-.098.16-.112.141-.128.121-.136.107-.152.093-.157.072-.161.064-.167.048-.17.04-.167.028-.162.015-.161.01-.152.004h-.21l-.196-.004h-.171l-.162-.005-.146-.005-.133-.01-.117-.01-.113-.014-.102-.01-.093-.02-.093-.014-.083-.024-.083-.02-.079-.029-.078-.029-.083-.029.22-1.074.044.01.054.014.068.02.084.02.088.019.097.02.108.023.117.02.123.02.127.019.132.014.137.015.142.005.142.005h.142l.142-.005.142-.03.112-.038.088-.054.069-.068.049-.068.039-.077.024-.078.02-.073.01-.141-.044-.122-.084-.097-.122-.082-.147-.073-.171-.073-.191-.068-.19-.078-.196-.087-.186-.102-.172-.127-.156-.15-.123-.185-.088-.219-.044-.262.005-.311.025-.19.034-.18.049-.164.059-.156.078-.146.088-.126.103-.121.122-.107.142-.093.156-.078.177-.072.196-.054.22-.044.24-.034.264-.02.288-.004h.181l.167.005.151.005.137.005.123.01.112.01.098.009.088.01.083.01.069.014.063.01.059.01.049.009.044.005.044.01.04.005-.25 1.098"/>
        <path stroke="#FFFFFE" stroke-width=".5" d="M18.142 14.162l-.069-.005-.068-.01-.064-.01-.064-.01-.058-.01-.064-.009-.064-.01-.068-.01-.068-.009-.079-.005-.088-.005-.093-.005h-.103l-.112.005-.127.01-.142.01-.098.014-.093.015-.083.029-.074.03-.068.033-.064.04-.049.048-.044.043-.029.054-.025.053-.01.059v.058l.015.063.02.063.04.063.048.063.098.093.117.073.137.063.147.053.157.05.161.052.162.059.156.063.147.082.137.103.122.12.103.152.078.184.05.219.019.262-.02.306-.034.229-.059.2-.078.184-.098.16-.112.141-.128.121-.136.107-.152.093-.157.072-.161.064-.167.048-.17.04-.167.028-.162.015-.161.01-.152.004h-.21l-.196-.004h-.171l-.162-.005-.146-.005-.133-.01-.117-.01-.113-.014-.102-.01-.093-.02-.093-.014-.083-.024-.083-.02-.079-.029-.078-.029-.083-.029.22-1.074.044.01.054.014.068.02.084.02.088.019.097.02.108.023.117.02.123.02.127.019.132.014.137.015.142.005.142.005h.142l.142-.005.142-.03.112-.038.088-.054.069-.068.049-.068.039-.077.024-.078.02-.073.01-.141-.044-.122-.084-.097-.122-.082-.147-.073-.171-.073-.191-.068-.19-.078-.196-.087-.186-.102-.172-.127-.156-.15-.123-.185-.088-.219-.044-.262.005-.311.025-.19.034-.18.049-.164.059-.156.078-.146.088-.126.103-.121.122-.107.142-.093.156-.078.177-.072.196-.054.22-.044.24-.034.264-.02.288-.004h.181l.167.005.151.005.137.005.123.01.112.01.098.009.088.01.083.01.069.014.063.01.059.01.049.009.044.005.044.01.04.005-.25 1.098"/>
        <path fill="#FFFFFE" d="M19.301 11.863h1.356l-.201 1.176h.817l-.176 1.098-.861-.024-.47 2.711-.005.098.025.082.049.063.063.054.088.034.098.029.108.02.117.009.108-.005.098-.01.088-.014.078-.02.064-.019.044-.015.03-.01.009-.004-.171.904-.035.024-.068.039-.034.02-.035.014-.039.015-.044.014-.044.015-.049.014-.049.01-.058.01-.059.01-.064.01-.073.009-.078.01-.084.01h-.371l-.196-.015-.172-.02-.156-.029-.132-.034-.113-.044-.093-.048-.083-.059-.063-.063-.05-.068-.034-.082-.024-.083-.015-.092-.005-.102v-.107l.015-.112.015-.122.934-5.3"/>
        <path stroke="#FFFFFE" stroke-width=".5" d="M19.301 11.863h1.356l-.201 1.176h.817l-.176 1.098-.861-.024-.47 2.711-.005.098.025.082.049.063.063.054.088.034.098.029.108.02.117.009.108-.005.098-.01.088-.014.078-.02.064-.019.044-.015.03-.01.009-.004-.171.904-.035.024-.068.039-.034.02-.035.014-.039.015-.044.014-.044.015-.049.014-.049.01-.058.01-.059.01-.064.01-.073.009-.078.01-.084.01h-.371l-.196-.015-.172-.02-.156-.029-.132-.034-.113-.044-.093-.048-.083-.059-.063-.063-.05-.068-.034-.082-.024-.083-.015-.092-.005-.102v-.107l.015-.112.015-.122.934-5.3"/>
        <path fill="#FFFFFE" d="M22.354 15.97l-.014.082-.005.087.01.092.02.093.033.092.04.088.053.092.059.083.069.082.073.073.078.073.088.058.088.054.098.044.098.033.098.02.127.02.123.014.127.014.127.01.127.005h.132l.128-.005.132-.01.132-.019.132-.024.137-.03.132-.043.137-.054.142-.058.137-.078.142-.082-.196 1.195-.157.078-.078.029-.073.03-.074.024-.078.024-.078.02-.083.014-.089.014-.097.01-.103.01-.113.01-.127.004h-.132l-.152.005h-.161l-.24-.005-.245-.024-.244-.034-.245-.058-.24-.073-.23-.092-.22-.122-.205-.14-.19-.166-.167-.2-.142-.223-.118-.257-.083-.287-.054-.326-.014-.359.024-.399.02-.155.03-.18.038-.19.054-.203.074-.21.088-.208.112-.214.137-.204.157-.195.19-.184.216-.165.244-.146.284-.122.318-.087.353-.058.396-.02.19.005.201.02.2.033.201.049.196.073.19.087.177.117.161.136.147.165.123.195.098.223.068.258.04.291.004.33-.034.37-.074.408-.024.297h-3.567l.225-.958h2.143l.01-.121-.005-.117-.01-.107-.02-.097-.034-.092-.034-.083-.049-.073-.049-.068-.058-.058-.064-.049-.073-.043-.074-.04-.078-.028-.078-.02-.084-.014-.087-.01-.093.005-.088.014-.084.02-.083.029-.083.039-.074.044-.073.053-.064.058-.063.068-.059.073-.054.078-.044.082-.044.088-.034.097-.03.097-.019.102-.196 1.006"/>
        <path stroke="#FFFFFE" stroke-width=".5" d="M22.354 15.97l-.014.082-.005.087.01.092.02.093.033.092.04.088.053.092.059.083.069.082.073.073.078.073.088.058.088.054.098.044.098.033.098.02.127.02.123.014.127.014.127.01.127.005h.132l.128-.005.132-.01.132-.019.132-.024.137-.03.132-.043.137-.054.142-.058.137-.078.142-.082-.196 1.195-.157.078-.078.029-.073.03-.074.024-.078.024-.078.02-.083.014-.089.014-.097.01-.103.01-.113.01-.127.004h-.132l-.152.005h-.161l-.24-.005-.245-.024-.244-.034-.245-.058-.24-.073-.23-.092-.22-.122-.205-.14-.19-.166-.167-.2-.142-.223-.118-.257-.083-.287-.054-.326-.014-.359.024-.399.02-.155.03-.18.038-.19.054-.203.074-.21.088-.208.112-.214.137-.204.157-.195.19-.184.216-.165.244-.146.284-.122.318-.087.353-.058.396-.02.19.005.201.02.2.033.201.049.196.073.19.087.177.117.161.136.147.165.123.195.098.223.068.258.04.291.004.33-.034.37-.074.408-.024.297h-3.567l.225-.958h2.143l.01-.121-.005-.117-.01-.107-.02-.097-.034-.092-.034-.083-.049-.073-.049-.068-.058-.058-.064-.049-.073-.043-.074-.04-.078-.028-.078-.02-.084-.014-.087-.01-.093.005-.088.014-.084.02-.083.029-.083.039-.074.044-.073.053-.064.058-.063.068-.059.073-.054.078-.044.082-.044.088-.034.097-.03.097-.019.102-.196 1.006"/>
        <path fill="#FFFFFE" d="M34.024 13.33l-.064-.033-.063-.03-.069-.033-.073-.035-.074-.029-.083-.029-.083-.029-.088-.03-.093-.023-.093-.02-.103-.02-.103-.014-.112-.01-.113-.01h-.362l-.127.01-.132.015-.137.024-.137.04-.137.053-.137.068-.137.087-.132.107-.127.126-.123.156-.117.18-.108.213-.102.243-.093.272-.079.312-.03.174-.019.17-.01.17.005.166.015.165.034.155.044.146.054.146.074.131.088.126.102.112.118.102.132.088.152.073.166.063.186.044.063.014.074.015.088.01.098.01.108.009h.234l.123-.01.127-.015.127-.024.122-.034.123-.039.122-.053.113-.063.102-.078.098-.087-.22 1.297-.03.024-.029.03-.039.033-.044.03-.054.038-.068.034-.078.034-.089.03-.112.034-.127.024-.147.02-.171.019-.191.01-.22.004-.25-.005-.274-.014-.225-.024-.225-.049-.225-.073-.225-.097-.215-.117-.206-.145-.196-.17-.18-.195-.162-.219-.137-.242-.118-.273-.088-.296-.058-.325-.02-.346.01-.378.054-.404.039-.199.044-.195.049-.189.049-.18.054-.17.063-.17.064-.16.068-.15.074-.151.073-.141.083-.136.088-.127.088-.121.098-.117.098-.107.103-.102.112-.097.113-.092.117-.083.123-.078.132-.072.132-.064.137-.058.142-.053.151-.049.152-.039.157-.034.166-.03.166-.023.177-.02.176-.01.185-.004.157.004.152.01.147.015.146.02.137.019.132.029.128.024.117.03.113.029.098.029.092.029.079.029.068.024.06.02.043.019.03.01-.245 1.346"/>
        <path stroke="#FFFFFE" stroke-width=".5" d="M34.024 13.33l-.064-.033-.063-.03-.069-.033-.073-.035-.074-.029-.083-.029-.083-.029-.088-.03-.093-.023-.093-.02-.103-.02-.103-.014-.112-.01-.113-.01h-.362l-.127.01-.132.015-.137.024-.137.04-.137.053-.137.068-.137.087-.132.107-.127.126-.123.156-.117.18-.108.213-.102.243-.093.272-.079.312-.03.174-.019.17-.01.17.005.166.015.165.034.155.044.146.054.146.074.131.088.126.102.112.118.102.132.088.152.073.166.063.186.044.063.014.074.015.088.01.098.01.108.009h.234l.123-.01.127-.015.127-.024.122-.034.123-.039.122-.053.113-.063.102-.078.098-.087-.22 1.297-.03.024-.029.03-.039.033-.044.03-.054.038-.068.034-.078.034-.089.03-.112.034-.127.024-.147.02-.171.019-.191.01-.22.004-.25-.005-.274-.014-.225-.024-.225-.049-.225-.073-.225-.097-.215-.117-.206-.145-.196-.17-.18-.195-.162-.219-.137-.242-.118-.273-.088-.296-.058-.325-.02-.346.01-.378.054-.404.039-.199.044-.195.049-.189.049-.18.054-.17.063-.17.064-.16.068-.15.074-.151.073-.141.083-.136.088-.127.088-.121.098-.117.098-.107.103-.102.112-.097.113-.092.117-.083.123-.078.132-.072.132-.064.137-.058.142-.053.151-.049.152-.039.157-.034.166-.03.166-.023.177-.02.176-.01.185-.004.157.004.152.01.147.015.146.02.137.019.132.029.128.024.117.03.113.029.098.029.092.029.079.029.068.024.06.02.043.019.03.01-.245 1.346"/>
        <path fill="#FFFFFE" d="M46.07 18.243h-1.355l.097-.54v-.048l-.078.097-.083.088-.083.078-.088.068-.089.063-.087.053-.088.044-.093.044-.093.034-.093.024-.093.024-.098.015-.098.015-.093.01-.098.004h-.098l-.254-.02-.235-.053-.215-.082-.196-.112-.176-.141-.157-.165-.137-.18-.117-.204-.098-.219-.078-.228-.054-.238-.04-.248-.014-.248.005-.253.024-.247.044-.248.074-.287.088-.272.103-.248.122-.233.127-.219.147-.194.152-.175.161-.16.171-.141.181-.122.186-.106.186-.083.196-.068.196-.044.195-.03.2-.009.143.005.137.015.127.024.117.034.113.039.098.043.098.054.088.053.078.059.073.063.064.063.059.063.049.063.044.064.039.058.03.058.342-1.91h1.33l-1.105 6.356"/>
        <path stroke="#FFFFFE" stroke-width=".5" d="M46.07 18.243h-1.355l.097-.54v-.048l-.078.097-.083.088-.083.078-.088.068-.089.063-.087.053-.088.044-.093.044-.093.034-.093.024-.093.024-.098.015-.098.015-.093.01-.098.004h-.098l-.254-.02-.235-.053-.215-.082-.196-.112-.176-.141-.157-.165-.137-.18-.117-.204-.098-.219-.078-.228-.054-.238-.04-.248-.014-.248.005-.253.024-.247.044-.248.074-.287.088-.272.103-.248.122-.233.127-.219.147-.194.152-.175.161-.16.171-.141.181-.122.186-.106.186-.083.196-.068.196-.044.195-.03.2-.009.143.005.137.015.127.024.117.034.113.039.098.043.098.054.088.053.078.059.073.063.064.063.059.063.049.063.044.064.039.058.03.058.342-1.91h1.33l-1.105 6.356"/>
        <path fill="#F1AD3D" d="M43.853 17.067l.137-.01.128-.028.117-.035.113-.053.102-.058.098-.073.093-.083.083-.087.074-.097.068-.107.064-.112.054-.117.049-.121.039-.126.034-.132.024-.13.025-.137.014-.141v-.131l-.004-.136-.015-.127-.02-.121-.034-.117-.039-.111-.049-.098-.059-.092-.063-.078-.074-.068-.083-.058-.088-.039-.093-.024-.103-.01-.132.01-.122.02-.113.038-.112.049-.098.063-.098.078-.083.082-.083.093-.074.107-.068.111-.064.117-.053.126-.05.131-.039.132-.039.14-.029.141-.025.214.01.233.035.239.063.228.098.2.127.16.162.107.195.038"/>
        <path fill="#FFFFFE" d="M13.807 17.164l-.196 1.08h-1.233l.034-.2.025-.18.02-.136.019-.073-.069.078-.078.078-.093.073-.103.068-.117.068-.122.058-.128.058-.132.049-.142.044-.141.034-.142.029-.147.02-.142.009-.142.005-.137-.015-.132-.02-.171-.043-.157-.049-.137-.063-.122-.073-.108-.077-.098-.088-.078-.092-.069-.097-.058-.102-.05-.107-.038-.107-.03-.107-.02-.112-.014-.111-.01-.108v-.106l.015-.19.03-.18.048-.17.064-.165.078-.155.088-.141.103-.136.117-.122.123-.112.137-.102.142-.092.146-.078.157-.068.162-.053.166-.044.171-.029h.01l.024-.005.035-.005.053-.005.06-.01.068-.004.073-.01.083-.01.083-.01.083-.01.089-.004.078-.01.078-.004.074-.005.068-.005h.167l.117.005.107.005h.108l.088.004.069.005.049.005h.014l.01-.034.03-.088.024-.101.01-.093-.02-.107-.044-.097-.059-.087-.078-.073-.093-.063-.103-.044-.117-.03-.127-.009-.137-.005-.147-.005h-.152l-.156.005-.162.01-.156.014-.157.015-.152.02-.146.019-.142.024-.127.024-.118.025-.108.029-.088.03-.068.033-.054.03.347-1.172.108-.044.108-.038.117-.034.235-.049.127-.02.127-.019.133-.01.137-.01.141-.004.147-.005h.47l.171.005.171.005.137.01.147.024.152.034.156.044.152.058.147.068.147.082.137.093.122.107.108.116.097.131.074.146.049.156.03.165v.185l-.03.194-.494 2.565"/>
        <path stroke="#FFFFFE" stroke-width=".5" d="M13.807 17.164l-.196 1.08h-1.233l.034-.2.025-.18.02-.136.019-.073-.069.078-.078.078-.093.073-.103.068-.117.068-.122.058-.128.058-.132.049-.142.044-.141.034-.142.029-.147.02-.142.009-.142.005-.137-.015-.132-.02-.171-.043-.157-.049-.137-.063-.122-.073-.108-.077-.098-.088-.078-.092-.069-.097-.058-.102-.05-.107-.038-.107-.03-.107-.02-.112-.014-.111-.01-.108v-.106l.015-.19.03-.18.048-.17.064-.165.078-.155.088-.141.103-.136.117-.122.123-.112.137-.102.142-.092.146-.078.157-.068.162-.053.166-.044.171-.029h.01l.024-.005.035-.005.053-.005.06-.01.068-.004.073-.01.083-.01.083-.01.083-.01.089-.004.078-.01.078-.004.074-.005.068-.005h.167l.117.005.107.005h.108l.088.004.069.005.049.005h.014l.01-.034.03-.088.024-.101.01-.093-.02-.107-.044-.097-.059-.087-.078-.073-.093-.063-.103-.044-.117-.03-.127-.009-.137-.005-.147-.005h-.152l-.156.005-.162.01-.156.014-.157.015-.152.02-.146.019-.142.024-.127.024-.118.025-.108.029-.088.03-.068.033-.054.03.347-1.172.108-.044.108-.038.117-.034.235-.049.127-.02.127-.019.133-.01.137-.01.141-.004.147-.005h.47l.171.005.171.005.137.01.147.024.152.034.156.044.152.058.147.068.147.082.137.093.122.107.108.116.097.131.074.146.049.156.03.165v.185l-.03.194-.494 2.565"/>
        <path fill="#D82332" d="M12.627 15.896l-.004-.024-.02-.024-.03-.015-.048-.01-.054-.01-.064-.004h-.146l-.079.005-.083.01-.078.009-.079.01-.073.01-.068.014-.059.015-.054.014-.034.01-.04.015-.053.019-.054.024-.063.03-.064.033-.069.034-.063.04-.069.048-.063.049-.059.058-.054.058-.049.063-.034.068-.03.078-.014.078-.005.165.024.131.05.097.063.073.073.049.084.03.078.014.078.004.147-.004.132-.015.127-.02.113-.029.098-.033.093-.044.083-.044.073-.053.064-.05.059-.057.049-.054.039-.058.034-.058.03-.059.024-.053.014-.054.04-.14.034-.16.03-.156.023-.127"/>
        <path fill="#FFFFFE" d="M3.512 18.243h-1.33l1.11-6.38h2.314l.22 3.785 1.6-3.785h2.418l-1.136 6.38h-1.33l.841-4.766h-.054l-1.991 4.766H4.672l-.01-.199-.034-.53-.044-.753-.098-1.735-.044-.762-.034-.554-.01-.233h-.074l-.812 4.766"/>
        <path stroke="#FFFFFE" stroke-width=".5" d="M3.512 18.243h-1.33l1.11-6.38h2.314l.22 3.785 1.6-3.785h2.418l-1.136 6.38h-1.33l.841-4.766h-.054l-1.991 4.766H4.672l-.01-.199-.034-.53-.044-.753-.098-1.735-.044-.762-.034-.554-.01-.233h-.074l-.812 4.766"/>
        <path fill="#FFFFFE" d="M38.09 17.164l-.2 1.08H36.66l.01-.2.005-.175v-.131l.01-.059-.064.073-.074.073-.088.068-.098.068-.102.063-.118.059-.122.058-.122.049-.132.039-.137.038-.138.025-.136.02-.142.009-.137.005-.132-.015-.133-.02-.176-.043-.156-.049-.137-.063-.127-.073-.108-.077-.093-.088-.078-.092-.069-.097-.058-.102-.044-.107-.04-.107-.024-.107-.02-.112-.014-.111-.01-.108v-.106l.01-.19.029-.18.044-.17.064-.165.073-.155.093-.141.103-.136.112-.122.127-.112.133-.102.141-.092.152-.078.152-.068.161-.053.162-.044.166-.029h.01l.024-.005.034-.005.05-.005.063-.01.069-.004.073-.01.078-.01.083-.01.089-.01.083-.004.083-.01.078-.004.069-.005.068-.005h.171l.118.005.112.005h.108l.093.004.078.005.045.005h.019l.01-.034.014-.088.015-.101.01-.093-.02-.107-.039-.097-.064-.087-.073-.073-.088-.063-.103-.044-.107-.03-.118-.009-.137-.005-.147-.005h-.151l-.157.005-.161.01-.157.014-.157.015-.151.02-.147.019-.142.024-.127.024-.117.025-.108.029-.088.03-.069.033-.053.03.342-1.172.108-.044.112-.038.113-.034.117-.025.123-.024.122-.02.127-.019.132-.01.137-.01.142-.004.142-.005h.46l.166.005.166.005.137.01.147.024.152.034.157.044.151.058.152.068.147.082.137.093.122.107.112.116.098.131.074.146.054.156.034.165v.185l-.025.194-.513 2.565"/>
        <path fill="#FFFFFE" d="M37.885 18.277l.026-.029.174-1.079-.05-.01-.175 1.08.025-.03v.068l.021-.005.005-.024-.026.03"/>
        <path fill="#FFFFFE" d="M36.632 18.239l.03.03h1.227v-.06h-1.228l.03.03h-.06l-.004.03h.034l-.03-.03"/>
        <path fill="#FFFFFE" d="M36.7 17.699l-.039-.039-.017.078-.004.131v.175l-.008.2h.05l.01-.2.008-.175-.005-.131v-.039l-.038-.039.043.039"/>
        <path fill="#FFFFFE" d="M34.806 18.32l.138.02.132.015.137-.005.142-.01.141-.02.137-.023.137-.04.138-.038.122-.049.127-.058.117-.058.103-.068.103-.068.088-.068.078-.078.064-.073-.049-.039-.064.073-.068.068-.088.068-.093.068-.103.058-.235.117-.122.049-.127.038-.137.04-.137.024-.132.019-.142.01-.137.005-.132-.015-.128-.02-.01.059"/>
        <path fill="#FFFFFE" d="M33.623 16.849l.004.106.01.108.015.116.02.112.024.107.039.111.044.112.064.102.068.102.078.093.098.092.113.078.127.077.142.064.162.048.175.044.01-.058-.176-.044-.151-.049-.133-.063-.127-.068-.103-.078-.088-.082-.078-.093-.068-.092-.054-.102-.044-.102-.04-.102-.024-.107-.02-.112-.014-.106-.01-.108.005-.106h-.068"/>
        <path fill="#FFFFFE" d="M35.379 14.983l-.171.029-.167.044-.16.053-.158.068-.151.078-.147.097-.132.102-.127.117-.118.121-.103.136-.097.146-.074.16-.063.166-.044.175-.03.184-.014.19h.068l.005-.19.03-.175.043-.165.064-.165.073-.151.088-.136.103-.136.108-.121.127-.107.132-.102.137-.088.152-.078.146-.068.162-.053.157-.044.161-.029v-.058"/>
        <path fill="#FFFFFE" d="M36.387 14.88h-.054l-.068.01-.069.004-.078.004-.083.008-.083.005-.089.008-.083.009-.078.008-.073.009-.069.004-.064.008-.049.005-.039.004-.02.004h-.009v.051h.01l.03-.004.028-.004.05-.005.063-.008.069-.004.073-.009.078-.008.083-.009.089-.008.083-.005.083-.008.078-.004.069-.005h.122v-.06"/>
        <path fill="#FFFFFE" d="M37.047 14.928l.03-.022h-.02l-.044-.004-.078-.004-.093-.009h-.22l-.118-.008h-.117v.06h.235l.112.008h.201l.078.004.045.004h.019l.03-.021-.03.021.024.005.005-.026-.059-.008M37.09 14.623h-.004l-.005.081-.012.085-.013.077-.009.03.052.008.008-.03.013-.076.013-.094.012-.08h-.055M36.514 14.142v.005l.113.005.103.029.097.044.084.058.068.068.059.083.039.087.02.102h.058l-.02-.111-.039-.107-.068-.093-.078-.078-.093-.067-.108-.044-.112-.03-.123-.014v.063M34.415 14.338l.049.025.049-.021.064-.03.083-.026.107-.025.118-.022.127-.02.142-.022.142-.017.151-.017.157-.013.157-.013.161-.008h.455l.137.004v-.05l-.137-.005-.147-.009h-.151l-.157.009-.161.008-.157.013-.157.013-.151.017-.152.017-.142.021-.127.022-.117.02-.108.026-.093.026-.073.03-.06.03.05.025-.059-.008"/>
        <path fill="#FFFFFE" d="M34.73 13.18l-.017.024-.298 1.171.051.01.298-1.17-.017.023-.017-.058-.012.005-.005.02.017-.025M36.954 12.955l-.166-.009-.166-.004h-.46l-.142.008-.142.005-.137.008-.132.009-.132.017-.122.017-.123.021-.117.022-.118.03-.112.033-.108.039.02.05.107-.038.113-.034.108-.03.117-.02.123-.022.122-.017.122-.017.132-.009.137-.008.142-.004h.602l.166.004h.166v-.051M38.633 14.604l.024-.2v-.184l-.034-.17-.054-.16-.078-.151-.098-.136-.117-.122-.123-.107-.142-.092-.146-.087-.157-.068-.152-.059-.161-.043-.152-.034-.152-.025-.137-.01v.059l.137.01.142.024.152.034.152.044.152.058.146.068.147.078.132.092.123.107.107.112.098.126.068.141.054.15.034.16v.186l-.024.19.059.009"/>
        <path fill="#FFFFFE" d="M38.119 17.17l.514-2.566-.059-.01-.514 2.566.059.01"/>
        <path fill="#F1AD3D" d="M36.906 15.896l-.01-.029-.02-.024-.034-.015-.049-.014-.054-.005-.063-.005h-.074l-.073.005-.078.01-.079.01-.078.009-.074.01-.073.014-.063.01-.064.014-.049.01-.034.005-.04.015-.048.014-.054.02-.064.029-.058.029-.069.034-.127.088-.064.053-.053.053-.054.064-.044.068-.035.072-.03.078-.014.083-.005.165.025.131.039.097.059.073.073.049.083.03.083.014.084.004.146-.004.138-.015.127-.024.112-.034.108-.04.093-.043.088-.049.078-.058.069-.053.058-.063.054-.059.044-.063.035-.058.024-.058.02-.059.014-.053.02-.136.024-.141.02-.136.01-.122"/>
        <path fill="#FFFFFE" d="M46.985 17.578l.01-.112.039-.132.068-.116.083-.102.103-.083.117-.058.128-.039.137-.014.137.014.127.039.117.058.103.083.083.102.069.116.04.132.009.112h-.147l-.005-.088-.03-.107-.048-.097-.064-.083-.078-.068-.093-.048-.108-.034-.112-.01-.113.01-.108.034-.092.048-.079.068-.063.083-.05.097-.028.107-.01.088h-.142"/>
        <path fill="#FFFFFE" d="M47.425 17.541v-.255h.266l.057.004.054.009.038.013.034.016.024.026.02.026.009.03.005.03-.005.037-.01.03-.014.026-.01.008h-.202l.019-.004.034-.004.029-.009.024-.008.02-.013.009-.013.01-.02v-.03l-.006-.022-.009-.017-.015-.009-.014-.008-.024-.004-.024-.005h-.198v.166h-.12M46.985 17.578l-.005.029.015.14.039.132.068.116.083.098.103.082.117.063.128.04.137.014.137-.015.127-.039.117-.063.103-.082.083-.098.069-.116.04-.131.014-.141-.005-.03h-.147l.005.03-.01.116-.03.107-.048.093-.064.082-.078.068-.093.054-.108.034-.112.01-.113-.01-.108-.034-.092-.054-.079-.068-.063-.082-.05-.093-.028-.107-.01-.116v-.03h-.142"/>
        <path fill="#FFFFFE" d="M47.425 17.578v.26h.114v-.214h.114l.137.213h.092l-.137-.213h.032l.032-.008.027-.009.023-.017.009-.012h-.192l-.023.004h-.114v-.004h-.114"/>
        <path stroke="#FFFFFE" stroke-width=".5" d="M46.98 17.607l.015-.141.039-.132.068-.116.083-.102.103-.083.117-.058.128-.039.137-.014.137.014.127.039.117.058.103.083.083.102.069.116.04.132.014.14-.015.142-.039.13-.069.117-.083.098-.103.082-.117.063-.127.04-.137.014-.137-.015-.128-.039-.117-.063-.103-.082-.083-.098-.068-.116-.04-.131-.014-.141m.567.267h-.122v-.588h.27l.058.005.054.01.039.014.034.02.025.029.02.029.009.034.005.034-.005.044-.01.034-.014.029-.02.024-.024.02-.03.01-.034.009h-.034l.147.243h-.098l-.147-.243h-.123v.243m.123-.292l.044-.01.034-.004.03-.01.024-.01.02-.014.01-.015.009-.024v-.034l-.005-.024-.01-.02-.014-.01-.015-.01-.024-.004-.025-.005h-.2v.194h.122m0 .588l.112-.01.108-.033.093-.054.078-.068.064-.082.049-.093.03-.107.009-.116-.01-.117-.03-.107-.048-.097-.064-.083-.078-.068-.093-.048-.108-.034-.112-.01-.113.01-.108.034-.092.048-.079.068-.063.083-.05.097-.028.107-.01.117.01.116.029.107.049.093.063.082.079.068.092.054.108.034.113.01"/>
        <path fill="#FFFFFE" d="M38.457 18.243h1.38l.494-2.765.019-.107.059-.213.039-.107.049-.107.059-.102.063-.097.079-.093.087-.082.098-.078.113-.073.127-.058.142-.049.157-.039.171-.029.19-.01h.123l.22-1.248-.137.01-.132.014-.122.024-.118.034-.107.04-.103.048-.098.053-.093.059-.088.068-.083.068-.157.155-.073.083-.073.092-.074.088-.068.097.147-.88h-1.375l-.915 5.204"/>
        <path stroke="#FFFFFE" stroke-width=".5" d="M38.457 18.243h1.38l.494-2.765.019-.107.059-.213.039-.107.049-.107.059-.102.063-.097.079-.093.087-.082.098-.078.113-.073.127-.058.142-.049.157-.039.171-.029.19-.01h.123l.22-1.248-.137.01-.132.014-.122.024-.118.034-.107.04-.103.048-.098.053-.093.059-.088.068-.083.068-.157.155-.073.083-.073.092-.074.088-.068.097.147-.88h-1.375l-.915 5.204"/>
        <path fill="#FFFFFE" d="M25.5 18.243h1.405l.47-2.765.019-.107.024-.101.025-.103.034-.097.04-.097.048-.092.06-.088.067-.082.079-.073.088-.073.108-.058.117-.054.137-.044.152-.038.166-.025.19-.014h.015l.02.005.024.004h.025l.024.005.02.005.015.005h.004l.005-.02.015-.058.02-.087.024-.107.034-.126.035-.136.044-.137.044-.136.039-.092.098-.184.049-.083.044-.073.034-.058.024-.034.01-.015h-.005l-.02-.005-.024-.005-.034-.005h-.034l-.04-.004-.034-.005h-.034l-.152.01-.137.014-.127.024-.117.03-.113.038-.102.049-.094.048-.088.059-.083.063-.078.073-.073.073-.074.082-.073.083-.069.092-.146.195.176-.88h-1.404l-.915 5.204"/>
        <path stroke="#FFFFFE" stroke-width=".5" d="M25.5 18.243h1.405l.47-2.765.019-.107.024-.101.025-.103.034-.097.04-.097.048-.092.06-.088.067-.082.079-.073.088-.073.108-.058.117-.054.137-.044.152-.038.166-.025.19-.014h.015l.02.005.024.004h.025l.024.005.02.005.015.005h.004l.005-.02.015-.058.02-.087.024-.107.034-.126.035-.136.044-.137.044-.136.039-.092.098-.184.049-.083.044-.073.034-.058.024-.034.01-.015h-.005l-.02-.005-.024-.005-.034-.005h-.034l-.04-.004-.034-.005h-.034l-.152.01-.137.014-.127.024-.117.03-.113.038-.102.049-.094.048-.088.059-.083.063-.078.073-.073.073-.074.082-.073.083-.069.092-.146.195.176-.88h-1.404l-.915 5.204"/>
        <path fill="#F1AD3D" d="M46.995 23.355v-.02l.039-.126.068-.111.083-.098.103-.078.117-.058.128-.034.137-.014.137.014.127.034.117.058.103.078.083.098.069.111.04.127v.019h-.143l-.03-.102-.048-.092-.064-.083-.078-.068-.093-.053-.108-.035-.112-.01-.113.01-.108.035-.092.053-.079.068-.063.083-.05.092-.028.102h-.142"/>
        <path fill="#F1AD3D" d="M47.425 23.334v-.15h.323l.054.01.038.008.034.017.024.021.02.026.009.03.005.038h-.097v-.021l-.005-.022-.009-.017-.015-.008-.014-.009-.024-.004-.024-.004h-.198v.085h-.12M46.98 23.449l.013-.094h.123v.004l-.008.09h-.128M47.425 23.449v-.094h.12v.085h.121l.044-.009.034-.004.029-.008.024-.009.02-.013.009-.012.01-.022v-.008h.096l-.005.03-.01.025-.014.021-.02.018h-.458M48.212 23.449l-.009-.09v-.004h.124l.012.094h-.127M46.98 23.462v.015l.015.14.039.131.068.117.083.102.103.083.117.058.128.039.137.015.137-.015.127-.039.117-.058.103-.083.083-.102.069-.117.04-.13.014-.141v-.015h-.147v.015l-.01.116-.03.107-.048.092-.064.083-.078.068-.093.053-.108.034-.112.01-.113-.01-.108-.034-.092-.053-.079-.068-.063-.083-.05-.092-.028-.107-.01-.116v-.015h-.147"/>
        <path fill="#F1AD3D" d="M47.425 23.462v.247h.114v-.213h.114l.137.213h.092l-.137-.213h.032l.032-.009.027-.008.023-.017h-.434"/>
    </g>
</svg>
