<svg xmlns="http://www.w3.org/2000/svg" width="70" height="30" viewBox="0 0 70 30">
    <g fill="none" fill-rule="evenodd">
        <path fill="#004F8B" d="M24.145 24.243l3.477-20.475h5.561l-3.48 20.475h-5.558M49.873 4.272c-1.102-.415-2.828-.86-4.984-.86-5.495 0-9.366 2.777-9.399 6.757-.03 2.942 2.764 4.584 4.873 5.563 2.164 1.003 2.893 1.643 2.882 2.54-.014 1.372-1.729 2-3.327 2-2.226 0-3.408-.311-5.235-1.075l-.716-.326-.78 4.584c1.298.571 3.7 1.066 6.194 1.092 5.846 0 9.64-2.745 9.684-6.995.02-2.33-1.461-4.102-4.669-5.563-1.944-.948-3.134-1.58-3.122-2.539 0-.851 1.008-1.761 3.185-1.761 1.818-.028 3.136.37 4.162.784l.498.236.754-4.437M64.133 3.787h-4.297c-1.331 0-2.327.365-2.912 1.698L48.665 24.25h5.84s.955-2.523 1.17-3.077c.639 0 6.311.009 7.122.009.167.716.677 3.068.677 3.068h5.16l-4.5-20.463m-6.858 13.198c.46-1.18 2.216-5.724 2.216-5.724-.033.054.456-1.185.737-1.954l.376 1.765s1.065 4.888 1.287 5.913h-4.616M19.48 3.783l-5.444 13.963-.58-2.838c-1.013-3.271-4.171-6.815-7.702-8.59l4.978 17.908 5.884-.007 8.755-20.436h-5.89"/>
        <path fill="#ED9F2D" d="M8.985 3.77H.018l-.071.426c6.977 1.695 11.593 5.79 13.509 10.712l-1.95-9.41c-.337-1.296-1.313-1.683-2.52-1.728"/>
    </g>
</svg>
