<svg xmlns="http://www.w3.org/2000/svg" width="14" height="18" viewBox="0 0 14 18">
    <path fill="none" fill-rule="evenodd" stroke="#FF6700" d="M11.937 12.437L9.39 11.164A.703.703 0 0 1 9 10.533v-.901a6.09 6.09 0 0 0 .98-1.801c.375-.172.62-.545.62-.964V5.8c0-.256-.096-.505-.267-.699V3.681c.015-.146.075-1.02-.557-1.74C9.228 1.316 8.339 1 7.133 1c-1.206 0-2.094.316-2.642.941-.632.72-.573 1.594-.557 1.74v1.42c-.171.193-.267.442-.267.698v1.068c0 .324.147.626.4.828.243.968.755 1.697.933 1.93v.883c0 .258-.14.495-.367.618l-2.379 1.298A2.404 2.404 0 0 0 1 14.536v.864C1 16.665 5.012 17 7.133 17c2.122 0 6.134-.335 6.134-1.6v-.811c0-.917-.51-1.741-1.33-2.152z"/>
</svg>
